<svg id="Layer_1" data-name="Layer 1" xmlns="http://www.w3.org/2000/svg" viewBox="0 0 276 265"><defs><style>.cls-1{fill:#767688;}.cls-2{fill:#eeedee;}.cls-3{fill:#fba60b;}.cls-4{fill:#ff5000;}.cls-5{fill:#fff;}.cls-6{fill:#572279;}.cls-7{fill:#070606;}.cls-8{fill:#cdc9c1;}</style></defs><title>evaluacion_icono</title><path class="cls-1" d="M178.2,219.67H97.8A12.37,12.37,0,0,1,85.43,207.3v-167A12.37,12.37,0,0,1,97.8,28h80.4a12.37,12.37,0,0,1,12.37,12.37v167A12.37,12.37,0,0,1,178.2,219.67Z"/><rect class="cls-2" x="85.43" y="49.61" width="105.13" height="145.33"/><path class="cls-3" d="M85.43,51.11H190.57V194.93H85.43Z"/><path class="cls-4" d="M85.43,51.11h28.22V194.93H85.43Z"/><circle class="cls-5" cx="137.37" cy="78.66" r="14.5"/><path class="cls-6" d="M131.18,93.16h12.38A13.81,13.81,0,0,1,157.37,107h0v24.18h-40V107a13.81,13.81,0,0,1,13.81-13.82Z"/><path class="cls-7" d="M115.63,131.16a1.74,1.74,0,0,0,1.74,1.73h40a1.74,1.74,0,0,0,1.74-1.74V107A15.67,15.67,0,0,0,148,92.07l-1-.29.78-.66a16.24,16.24,0,1,0-22.88-2.07A15.65,15.65,0,0,0,127,91.12l.78.66-1,.29A15.66,15.66,0,0,0,115.63,107Zm9-51.95h0v-.55A12.77,12.77,0,0,1,137.36,65.9h0a12.76,12.76,0,1,1-12.75,13.31ZM119.11,107A12.1,12.1,0,0,1,131.18,94.9h12.38A12.11,12.11,0,0,1,155.63,107v22.44H119.11Z"/><path class="cls-7" d="M174.1,140H100.64a2.29,2.29,0,0,0,0,4.58H174.1a2.29,2.29,0,0,0,0-4.58Z"/><path class="cls-7" d="M174.1,151H100.64a2.29,2.29,0,1,0,0,4.58H174.1a2.29,2.29,0,1,0,0-4.58Z"/><path class="cls-7" d="M174.1,162.11H100.64a2.29,2.29,0,0,0,0,4.58H174.1a2.29,2.29,0,0,0,0-4.58Z"/><path class="cls-7" d="M22.6,218.79H1.7a1.7,1.7,0,1,0,0,3.39H22.6a1.7,1.7,0,1,0,0-3.39Z"/><path class="cls-7" d="M274.3,218.79H253.4a1.7,1.7,0,1,0,0,3.39h20.9a1.7,1.7,0,1,0,0-3.39Z"/><path class="cls-7" d="M236.7,218.79H39.3a1.7,1.7,0,1,0,0,3.39H236.7a1.7,1.7,0,1,0,0-3.39Z"/><path class="cls-7" d="M39.54,235.46H22a1.73,1.73,0,0,0,0,3.4H39.54a1.73,1.73,0,0,0,0-3.4Z"/><path class="cls-7" d="M250.28,235.46h-17.5a1.73,1.73,0,0,0,0,3.4h17.5a1.73,1.73,0,0,0,0-3.4Z"/><path class="cls-7" d="M218.8,235.46H53.52a1.73,1.73,0,0,0,0,3.4H218.8a1.73,1.73,0,0,0,0-3.4Z"/><path class="cls-7" d="M178.2,26.14H97.8A14.2,14.2,0,0,0,83.62,40.33v167A14.2,14.2,0,0,0,97.8,221.49h80.4a14.2,14.2,0,0,0,14.18-14.19V150.48a1.82,1.82,0,0,0-3.63,0v42.64H87.25V51.42h101.5v85.92a1.82,1.82,0,1,0,3.63,0v-97A14.2,14.2,0,0,0,178.2,26.14Zm10.55,170.61V207.3a10.56,10.56,0,0,1-10.55,10.55H97.8A10.56,10.56,0,0,1,87.25,207.3V196.75Zm0-149H87.25V40.33A10.56,10.56,0,0,1,97.8,29.78h80.4a10.56,10.56,0,0,1,10.55,10.55Z"/><path class="cls-7" d="M140.23,36.08h-4.46a2.09,2.09,0,0,0,0,4.18h4.46a2.09,2.09,0,1,0,0-4.18Z"/><path class="cls-7" d="M151.37,36.08h-2.23a2.09,2.09,0,1,0,0,4.18h2.23a2.09,2.09,0,1,0,0-4.18Z"/><path class="cls-7" d="M126.86,36.08h-2.23a2.09,2.09,0,1,0,0,4.18h2.23a2.09,2.09,0,0,0,0-4.18Z"/><path class="cls-7" d="M133.79,209.28h8.42a2,2,0,0,0,0-3.95h-8.42a2,2,0,0,0,0,3.95Z"/><rect class="cls-8" x="163.14" y="102.52" width="7.5" height="23.69" transform="matrix(0.76, -0.65, 0.65, 0.76, -34.19, 136.65)"/><path class="cls-7" d="M179.41,121l-7.77,6.69-17.26-20,7.77-6.69Zm-7.48,2.81,3.6-3.1-13.67-15.87-3.6,3.11Z"/><path class="cls-6" d="M170.13,118.3h0a11.77,11.77,0,0,1,16.6,1.24l26.77,31.07a11.77,11.77,0,0,1-1.24,16.6h0a11.77,11.77,0,0,1-16.6-1.24L168.89,134.9A11.77,11.77,0,0,1,170.13,118.3Z"/><path class="cls-7" d="M213.16,168.25a13.16,13.16,0,0,1-18.54-1.38L167.85,135.8a13.15,13.15,0,0,1,19.92-17.16l26.77,31.07A13.16,13.16,0,0,1,213.16,168.25ZM171,119.34A10.41,10.41,0,0,0,169.93,134l26.77,31.08a10.4,10.4,0,0,0,15.76-13.57l-26.78-31.08A10.41,10.41,0,0,0,171,119.34Z"/><path class="cls-8" d="M112.76,51.71a37.68,37.68,0,1,0,53.13,3.95A37.68,37.68,0,0,0,112.76,51.71Zm41.47,48.15A25.87,25.87,0,1,1,157,63.37,25.86,25.86,0,0,1,154.23,99.86Z"/><path class="cls-7" d="M162.84,109.84a39.05,39.05,0,1,1,4.09-55.07A39.1,39.1,0,0,1,162.84,109.84ZM113.65,52.75a36.3,36.3,0,1,0,51.2,3.81A36.35,36.35,0,0,0,113.65,52.75Zm41.48,48.15A27.25,27.25,0,1,1,158,62.47,27.28,27.28,0,0,1,155.13,100.9ZM121.36,61.7a24.49,24.49,0,1,0,34.55,2.57A24.52,24.52,0,0,0,121.36,61.7Z"/></svg>