<svg xmlns="http://www.w3.org/2000/svg" viewBox="0 0 490.24 496.37"><defs><style>.cls-1{fill:#712a81;}.cls-2{fill:#4f1b5b;}.cls-3{fill:#fff;}.cls-4,.cls-5,.cls-6{fill:none;stroke:#f36d21;stroke-linejoin:round;stroke-width:2px;}.cls-5{stroke-dasharray:2.97 2.97;}.cls-6{stroke-dasharray:3;}.cls-7{fill:#ff5000;}.cls-8{fill:#572279;}.cls-9{fill:#76777a;}</style></defs><title>origen_equality</title><g id="Layer_2" data-name="Layer 2"><g id="Quienes_somos" data-name="Quienes somos"><g id="Main"><g id="section_Iamge" data-name="section Iamge"><rect class="cls-1" x="328.24" y="305.04" width="160" height="40" rx="6.32"/><rect class="cls-2" x="165.24" y="2" width="160" height="40" rx="6.32"/><rect class="cls-1" x="163.24" width="160" height="40" rx="6.32"/><path class="cls-3" d="M217.23,26.56V13.71h2.25V24.62H226v1.94Z"/><path class="cls-3" d="M227.42,26.56l4.93-12.85h2.39l4.95,12.85h-2.41l-1.2-3.4H231l-1.21,3.4Zm4.14-5.11h3.92l-1.92-5.53h-.06Z"/><path class="cls-3" d="M239.39,15.65V13.71h10.4v1.94h-4.08V26.56h-2.25V15.65Z"/><path class="cls-3" d="M252.64,26.56V13.71h2.25V26.56Z"/><path class="cls-3" d="M258.9,26.56V13.71h2.38l5.86,9.47h0V13.71h2.14V26.56H267l-5.85-9.45H261v9.45Z"/><rect class="cls-2" x="165.24" y="151.48" width="160" height="40" rx="6.32"/><rect class="cls-1" x="163.24" y="149.48" width="160" height="40" rx="6.32"/><path class="cls-3" d="M217.23,176V163.19h2.25v10.9H226V176Z"/><path class="cls-3" d="M227.42,176l4.93-12.85h2.39L239.69,176h-2.41l-1.2-3.4H231l-1.21,3.4Zm4.14-5.11h3.92l-1.92-5.53h-.06Z"/><path class="cls-3" d="M239.39,165.13v-1.94h10.4v1.94h-4.08V176h-2.25V165.13Z"/><path class="cls-3" d="M252.64,176V163.19h2.25V176Z"/><path class="cls-3" d="M258.9,176V163.19h2.38l5.86,9.46h0v-9.46h2.14V176H267l-5.85-9.45H261V176Z"/><rect class="cls-2" x="2" y="307.04" width="160" height="40" rx="6.32"/><rect class="cls-1" y="305.04" width="160" height="40" rx="6.32"/><path class="cls-3" d="M18.45,320.38a5.63,5.63,0,0,1,4.47-1.94,5.66,5.66,0,0,1,4.48,1.94,7.68,7.68,0,0,1,0,9.59,5.66,5.66,0,0,1-4.48,1.93A5.62,5.62,0,0,1,18.45,330a7.68,7.68,0,0,1,0-9.59Zm7.39,1.33a3.31,3.31,0,0,0-2.92-1.44A3.31,3.31,0,0,0,20,321.71a6.56,6.56,0,0,0,0,6.93,3.32,3.32,0,0,0,2.91,1.43,3.33,3.33,0,0,0,2.92-1.43,6.56,6.56,0,0,0,0-6.93Z"/><path class="cls-3" d="M32.48,331.6V318.74h2.25v10.91h6.53v2Z"/><path class="cls-3" d="M44.16,331.6V318.74h5.33a5.1,5.1,0,0,1,4.25,1.8,8.27,8.27,0,0,1,0,9.27,5.12,5.12,0,0,1-4.25,1.79Zm2.25-1.84h2.22a5.88,5.88,0,0,0,2.15-.34,2.77,2.77,0,0,0,1.32-1,4.25,4.25,0,0,0,.63-1.43,9.29,9.29,0,0,0,0-3.64,4.25,4.25,0,0,0-.63-1.43,2.77,2.77,0,0,0-1.32-1,6.1,6.1,0,0,0-2.15-.34H46.41Z"/><path class="cls-3" d="M64.86,331.6V318.74h8.88v1.95H67.11v3.36h5.82v1.84H67.11v5.71Z"/><path class="cls-3" d="M76.89,331.6V318.74H83a4.83,4.83,0,0,1,3.17.91,3.18,3.18,0,0,1,1.08,2.57,4.12,4.12,0,0,1-.25,1.51,2.41,2.41,0,0,1-.67,1,4.17,4.17,0,0,1-.67.49,2.79,2.79,0,0,1-.53.24v0a2.15,2.15,0,0,1,1.32.73,2.88,2.88,0,0,1,.59,2c0,1.75.23,2.88.7,3.39H85.35a3.83,3.83,0,0,1-.35-1.89,4.77,4.77,0,0,0-.53-2.63,2.28,2.28,0,0,0-2-.78H79.14v5.3Zm2.25-11v4h3.69c1.46,0,2.19-.68,2.19-2a1.77,1.77,0,0,0-.6-1.55,2.89,2.89,0,0,0-1.63-.41Z"/><path class="cls-3" d="M90.91,331.6V318.74h9.25v1.95h-7v3.36h6.48v1.84H93.16v3.76h7.13v2Z"/><path class="cls-3" d="M103.51,331.6V318.74h2.37l5.87,9.47h0v-9.47h2.14V331.6h-2.38l-5.85-9.45h0v9.45Z"/><path class="cls-3" d="M117.26,325.17a7.07,7.07,0,0,1,1.68-4.79,5.66,5.66,0,0,1,4.48-1.94,5.84,5.84,0,0,1,3.73,1.18,4.48,4.48,0,0,1,1.72,3.21h-2.25a3,3,0,0,0-3.2-2.56,3.31,3.31,0,0,0-2.92,1.44,6.56,6.56,0,0,0,0,6.93,3.33,3.33,0,0,0,2.92,1.43,2.9,2.9,0,0,0,2.27-.94,4.2,4.2,0,0,0,1-2.43h2.2a5.49,5.49,0,0,1-1.65,3.76,5.3,5.3,0,0,1-3.82,1.44,5.66,5.66,0,0,1-4.48-1.93A7.06,7.06,0,0,1,117.26,325.17Z"/><path class="cls-3" d="M132.24,331.6V318.74h2.25v5.12h5.85v-5.12h2.25V331.6h-2.25v-5.8h-5.85v5.8Z"/><rect class="cls-2" x="330.24" y="307.04" width="160" height="40" rx="6.32"/><rect class="cls-1" x="330.24" y="305.04" width="160" height="40" rx="6.32"/><path class="cls-3" d="M366.56,331.6V318.74h9.25v1.95h-7v3.36h6.48v1.84h-6.48v3.76h7.13v2Z"/><path class="cls-3" d="M379.16,331.6V318.74h2.38l5.87,9.47h0v-9.47h2.14V331.6h-2.37l-5.85-9.45h-.06v9.45Z"/><path class="cls-3" d="M393,325.17a7,7,0,0,1,1.69-4.79,5.63,5.63,0,0,1,4.47-1.94,6,6,0,0,1,3.72,1.15,4.57,4.57,0,0,1,1.79,3.24h-2.2a2.64,2.64,0,0,0-1.1-1.88,3.67,3.67,0,0,0-2.21-.68,3.31,3.31,0,0,0-2.92,1.44,6.56,6.56,0,0,0,0,6.93,3.33,3.33,0,0,0,2.92,1.43,3.45,3.45,0,0,0,2.64-.91,3.73,3.73,0,0,0,1-2.62h-3.42v-1.71h5.47v6.77h-1.44l-.34-1.52a5.39,5.39,0,0,1-1.77,1.42,5.08,5.08,0,0,1-2.1.4,5.62,5.62,0,0,1-4.47-1.93A7,7,0,0,1,393,325.17Z"/><path class="cls-3" d="M408.61,331.6V318.74h2.25v10.91h6.53v2Z"/><path class="cls-3" d="M420.29,331.6V318.74h2.25V331.6Z"/><path class="cls-3" d="M425.87,327.31h2.25a2.43,2.43,0,0,0,.9,2.08,3.84,3.84,0,0,0,2.36.68,3.1,3.1,0,0,0,2.05-.57,1.77,1.77,0,0,0,.67-1.38,1.54,1.54,0,0,0-1.07-1.58c-.27-.11-.58-.21-.92-.31l-1.41-.37-1.5-.38c-1.9-.5-2.84-1.58-2.84-3.26a3.21,3.21,0,0,1,1.39-2.8,5.63,5.63,0,0,1,3.31-1,5.55,5.55,0,0,1,3.51,1.09,3.57,3.57,0,0,1,1.42,3h-2.25c-.12-1.51-1.05-2.27-2.77-2.27a3.36,3.36,0,0,0-1.65.4,1.34,1.34,0,0,0-.71,1.28q0,1.2,1.53,1.65l.84.22,1.7.45,1.17.32a3.54,3.54,0,0,1,1.85,1.29,3.38,3.38,0,0,1,.65,2,3.83,3.83,0,0,1-.44,1.85,3.3,3.3,0,0,1-1.17,1.26,6.4,6.4,0,0,1-1.63.69,7.54,7.54,0,0,1-1.87.23,6.09,6.09,0,0,1-3.84-1.15A4.19,4.19,0,0,1,425.87,327.31Z"/><path class="cls-3" d="M439.61,331.6V318.74h2.25v5.12h5.84v-5.12H450V331.6H447.7v-5.8h-5.84v5.8Z"/><line class="cls-4" x1="243.24" y1="78.2" x2="243.24" y2="79.7"/><line class="cls-5" x1="243.24" y1="82.67" x2="243.24" y2="146.49"/><line class="cls-4" x1="243.24" y1="147.98" x2="243.24" y2="149.48"/><path class="cls-6" d="M243.24,224.4v24.32a10,10,0,0,1-10,10H90a10,10,0,0,0-10,10V305"/><path class="cls-6" d="M80,347V394.2a10,10,0,0,0,10,10H400.24a10,10,0,0,0,10-10V376.84"/><line class="cls-6" x1="245.12" y1="404.2" x2="245.12" y2="438.04"/><path class="cls-7" d="M196.24,463.69l1.91,1.9a10,10,0,0,1,1.45-.08,9.13,9.13,0,0,1,8.93,8.95,9.58,9.58,0,0,1-.08,1.42l4.21,4.2a.67.67,0,0,1,.06-.12A14.33,14.33,0,0,0,193,461.77a7.53,7.53,0,0,1,3.2,1.92"/><path class="cls-7" d="M203.79,488.21a4.44,4.44,0,0,1-1.3-3.59,4.73,4.73,0,0,1,.42-1.61,9.1,9.1,0,0,1-10.56-14.12l-3.71-3.72a14.32,14.32,0,0,0,10.85,23.76,14.43,14.43,0,0,0,4.33-.69Z"/><path class="cls-8" d="M211.46,494.6h0l-7-7a3.86,3.86,0,0,1,.65-5.83l6.38,6.33a4.62,4.62,0,0,1,0,6.53"/><path class="cls-8" d="M187.94,463.19h0a6.31,6.31,0,0,1,7.66,1.14l16.59,16.56a4.19,4.19,0,0,1-6.46.09Z"/><path class="cls-8" d="M183.34,476.5H163.9c.69,3.62,3.71,5.94,8,5.94a8.87,8.87,0,0,0,6.73-2.69l3.11,3.58c-2.22,2.64-5.71,4-10,4-8.31,0-13.7-5.33-13.7-12.71S163.52,462,170.9,462s12.53,5,12.53,12.81c0,.46,0,1.16-.09,1.71m-19.49-3.85h14.06a6.74,6.74,0,0,0-7-6,6.84,6.84,0,0,0-7.05,6"/><path class="cls-8" d="M240.1,462.26V487h-5.52v-3.16a10.11,10.11,0,0,1-8,3.48c-6.36,0-10.68-3.48-10.68-10.95V462.26h5.8v13.36c0,4.5,2.14,6.64,5.8,6.64,4,0,6.78-2.51,6.78-7.47V462.26Z"/><path class="cls-8" d="M264.79,472.51V487h-5.48v-3c-1.39,2.14-4.08,3.34-7.8,3.34-5.66,0-9.23-3.11-9.23-7.42,0-4.13,2.78-7.38,10.3-7.38H259v-.37c0-3.39-2-5.39-6.17-5.39a12.3,12.3,0,0,0-7.52,2.46L243,465c2.65-2,6.5-3.06,10.49-3.06,7.14,0,11.28,3.38,11.28,10.53M259,479.29v-2.88h-6c-3.95,0-5,1.48-5,3.29,0,2.09,1.76,3.44,4.73,3.44s5.29-1.3,6.26-3.85"/><rect class="cls-8" x="267.68" y="452.6" width="5.8" height="34.44"/><path class="cls-8" d="M276.37,456a3.54,3.54,0,0,1,3.72-3.48,3.46,3.46,0,0,1,3.71,3.35,3.72,3.72,0,0,1-7.43.13"/><rect class="cls-8" x="277.16" y="462.26" width="5.8" height="24.78"/><path class="cls-8" d="M304.05,485.69a9.07,9.07,0,0,1-5.57,1.67c-5.43,0-8.54-2.88-8.54-8.35V467.08h-4.08v-4.85h4.08v-9.67h5.8v9.67h6.64v4.85h-6.64v11.79c0,2.41,1.21,3.71,3.44,3.71a5.19,5.19,0,0,0,3.25-1Z"/><path class="cls-8" d="M332.39,462.26,320.78,489c-2.27,5.62-5.43,7.34-9.56,7.34a10.22,10.22,0,0,1-6.63-2.28l2.32-4.27a6.27,6.27,0,0,0,4.27,1.72c2,0,3.24-1,4.36-3.43l.42-1-10.82-24.87h6L319,480.59l7.85-18.33Z"/><circle class="cls-1" cx="245.12" cy="438.04" r="5"/><path class="cls-9" d="M196.38,66.24l5.18-12.85h1.37l5,12.85h-1.31l-1.57-4h-5.85l-1.55,4Zm3.24-5h5.06l-2.49-6.59Z"/><path class="cls-9" d="M210.49,66.24V53.39h8.87v1h-7.65v4.65h7.17v1h-7.17V65.2h7.74v1Z"/><path class="cls-9" d="M233.84,66.31l-.62.76-2-1.51a5.62,5.62,0,0,1-3.33,1,6.17,6.17,0,0,1-2.66-.55,5.07,5.07,0,0,1-1.91-1.48,7,7,0,0,1-1.11-2.13,8.43,8.43,0,0,1,0-5.07,6.86,6.86,0,0,1,1.11-2.13,5.07,5.07,0,0,1,1.91-1.48,6.17,6.17,0,0,1,2.66-.55,5.71,5.71,0,0,1,5.39,3.39,8.2,8.2,0,0,1,.65,3.3,6.74,6.74,0,0,1-1.94,5.1Zm-4.63-3.53,1.87,1.43a5.74,5.74,0,0,0,1.64-4.4,7.34,7.34,0,0,0-.29-2.07,6.19,6.19,0,0,0-.84-1.8,4,4,0,0,0-1.52-1.29,5.07,5.07,0,0,0-4.35,0,3.93,3.93,0,0,0-1.52,1.29,6,6,0,0,0-.86,1.8,7.57,7.57,0,0,0,0,4.15,5.93,5.93,0,0,0,.86,1.79,4,4,0,0,0,1.52,1.3,4.76,4.76,0,0,0,2.18.49,4.37,4.37,0,0,0,2.37-.63l-1.69-1.28Z"/><path class="cls-9" d="M237.07,61.61V53.39h1.23v8a4.44,4.44,0,0,0,.95,3.15,4.53,4.53,0,0,0,5.63,0,4.4,4.4,0,0,0,1-3.15v-8h1.23v8.22a5.08,5.08,0,0,1-1.24,3.53,4.83,4.83,0,0,1-3.77,1.37,4.77,4.77,0,0,1-3.75-1.38A5.09,5.09,0,0,1,237.07,61.61Z"/><path class="cls-9" d="M249.46,66.24l5.18-12.85H256l5,12.85h-1.31l-1.57-4h-5.85l-1.55,4Zm3.24-5h5.06l-2.49-6.59Z"/><path class="cls-9" d="M263.57,66.24V53.39h1.22V65.2H272v1Z"/><path class="cls-9" d="M274.68,66.24V53.39h1.22V66.24Z"/><path class="cls-9" d="M279.29,62h1.22c-.05,2.3,1.35,3.46,4.19,3.46a4.85,4.85,0,0,0,1.49-.25,3.08,3.08,0,0,0,1.33-.87,2.13,2.13,0,0,0,.59-1.49c0-1.13-.89-1.91-2.65-2.33l-2.86-.7a5.18,5.18,0,0,1-2.12-1,2.62,2.62,0,0,1-.78-2.07,3.43,3.43,0,0,1,.2-1.11,3.89,3.89,0,0,1,.65-1.16,3.1,3.1,0,0,1,1.37-1,5.71,5.71,0,0,1,2.21-.38,5.45,5.45,0,0,1,3.39,1,3.5,3.5,0,0,1,1.36,3h-1.22a2.78,2.78,0,0,0-1.08-2.17,3.81,3.81,0,0,0-2.43-.78,4.14,4.14,0,0,0-2.32.61,2.2,2.2,0,0,0-.91,1.95c0,1,.65,1.67,1.95,2l3.13.77a6.16,6.16,0,0,1,2.45,1.18,2.8,2.8,0,0,1,.88,2.21,4.59,4.59,0,0,1-.06.73,4.08,4.08,0,0,1-.36.93,3.13,3.13,0,0,1-.79,1,4,4,0,0,1-1.45.72,7.24,7.24,0,0,1-2.25.31,5.92,5.92,0,0,1-3.83-1.13A3.76,3.76,0,0,1,279.29,62Z"/><path class="cls-9" d="M185.18,214.56l5.18-12.85h1.37l5,12.85h-1.31l-1.57-4H188l-1.54,4Zm3.24-5h5.06L191,202.93Z"/><path class="cls-9" d="M199.29,214.56V201.71h8.88v1h-7.65v4.65h7.16v1h-7.16v5.08h7.74v1Z"/><path class="cls-9" d="M222.64,214.63l-.61.76-2-1.51a5.62,5.62,0,0,1-3.33,1,6.21,6.21,0,0,1-2.66-.55,5,5,0,0,1-1.9-1.48,7,7,0,0,1-1.12-2.13,8.43,8.43,0,0,1,0-5.07,6.88,6.88,0,0,1,1.12-2.13A5,5,0,0,1,214,202a6.21,6.21,0,0,1,2.66-.55,5.83,5.83,0,0,1,3.34.95,5.75,5.75,0,0,1,2.05,2.44,8,8,0,0,1,.66,3.3,6.74,6.74,0,0,1-1.95,5.1ZM218,211.1l1.88,1.43a5.74,5.74,0,0,0,1.63-4.4,7.34,7.34,0,0,0-.28-2.07,6.48,6.48,0,0,0-.85-1.8,4,4,0,0,0-1.51-1.29,5.09,5.09,0,0,0-4.36,0,4.08,4.08,0,0,0-1.52,1.29,6,6,0,0,0-.85,1.8,7.57,7.57,0,0,0,0,4.15A5.91,5.91,0,0,0,213,212a4.11,4.11,0,0,0,1.52,1.3,4.79,4.79,0,0,0,2.18.49,4.37,4.37,0,0,0,2.37-.63l-1.69-1.28Z"/><path class="cls-9" d="M225.88,209.93v-8.22h1.22v7.95a4.4,4.4,0,0,0,1,3.15,3.74,3.74,0,0,0,2.8,1,3.79,3.79,0,0,0,2.82-1,4.4,4.4,0,0,0,1-3.15v-7.95h1.23v8.22a5.08,5.08,0,0,1-1.23,3.53,4.86,4.86,0,0,1-3.78,1.37,4.77,4.77,0,0,1-3.75-1.38A5.09,5.09,0,0,1,225.88,209.93Z"/><path class="cls-9" d="M238.26,214.56l5.19-12.85h1.37l5,12.85h-1.32l-1.56-4h-5.85l-1.55,4Zm3.24-5h5.06l-2.48-6.59Z"/><path class="cls-9" d="M252.37,214.56V201.71h1.23v11.81h7.2v1Z"/><path class="cls-9" d="M263.48,214.56V201.71h1.22v12.85Z"/><path class="cls-9" d="M267.35,202.75v-1h10.19v1h-4.48v11.81h-1.23V202.75Z"/><path class="cls-9" d="M277,214.56l5.18-12.85h1.37l5,12.85h-1.32l-1.56-4h-5.85l-1.55,4Zm3.24-5h5.05l-2.48-6.59Z"/><path class="cls-9" d="M290.48,210.33h1.22c0,2.3,1.35,3.46,4.2,3.46a4.79,4.79,0,0,0,1.48-.25,3.11,3.11,0,0,0,1.34-.87,2.12,2.12,0,0,0,.58-1.49c0-1.13-.88-1.91-2.64-2.33l-2.87-.7a5.2,5.2,0,0,1-2.11-1,2.62,2.62,0,0,1-.79-2.07,3.43,3.43,0,0,1,.2-1.11,4.13,4.13,0,0,1,.65-1.16,3.13,3.13,0,0,1,1.38-1,5.66,5.66,0,0,1,2.2-.38,5.46,5.46,0,0,1,3.4,1,3.52,3.52,0,0,1,1.35,3h-1.22a2.77,2.77,0,0,0-1.07-2.17,3.85,3.85,0,0,0-2.44-.78,4.11,4.11,0,0,0-2.31.61,2.18,2.18,0,0,0-.91,1.95c0,1,.65,1.67,1.94,2l3.14.77a6.11,6.11,0,0,1,2.44,1.18,2.77,2.77,0,0,1,.89,2.21,4.62,4.62,0,0,1-.07.73,3.2,3.2,0,0,1-.36.93,3.25,3.25,0,0,1-.78,1,4.16,4.16,0,0,1-1.45.72,7.31,7.31,0,0,1-2.26.31,5.89,5.89,0,0,1-3.82-1.13A3.77,3.77,0,0,1,290.48,210.33Z"/><path class="cls-9" d="M380.16,369.25V356.4H389v1.05h-7.65v4.64h7.16v1h-7.16v5.08h7.74v1Z"/><path class="cls-9" d="M403.51,369.32l-.61.76-2-1.51a5.62,5.62,0,0,1-3.33.95,6.17,6.17,0,0,1-2.66-.55,5.15,5.15,0,0,1-1.91-1.48,7.08,7.08,0,0,1-1.11-2.13,8.43,8.43,0,0,1,0-5.07,7.2,7.2,0,0,1,1.11-2.13,5.25,5.25,0,0,1,1.91-1.48,6.17,6.17,0,0,1,2.66-.55,5.83,5.83,0,0,1,3.34.95,5.75,5.75,0,0,1,2,2.44,8,8,0,0,1,.65,3.31,6.71,6.71,0,0,1-1.94,5.09Zm-4.63-3.52,1.87,1.42a5.68,5.68,0,0,0,1.64-4.39,7,7,0,0,0-.29-2.08,6.13,6.13,0,0,0-.84-1.79,4.08,4.08,0,0,0-1.51-1.3,5.09,5.09,0,0,0-4.36,0,4.12,4.12,0,0,0-1.52,1.3,5.93,5.93,0,0,0-.86,1.79,7.36,7.36,0,0,0-.28,2.08,7.46,7.46,0,0,0,.28,2.08,6,6,0,0,0,.86,1.79,4,4,0,0,0,1.52,1.29,4.67,4.67,0,0,0,2.18.49,4.37,4.37,0,0,0,2.37-.63l-1.69-1.28Z"/><path class="cls-9" d="M406.75,364.63V356.4H408v8a4.37,4.37,0,0,0,1,3.14,3.74,3.74,0,0,0,2.8,1,3.79,3.79,0,0,0,2.82-1,4.37,4.37,0,0,0,1-3.14v-8h1.23v8.23a5,5,0,0,1-1.24,3.52,5.84,5.84,0,0,1-7.52,0A5.1,5.1,0,0,1,406.75,364.63Z"/><path class="cls-9" d="M419.13,369.25l5.19-12.85h1.36l5,12.85h-1.31l-1.57-4H422l-1.54,4Zm3.24-5h5.06L425,357.62Z"/><path class="cls-9" d="M433.24,369.25V356.4h1.23v11.81h7.2v1Z"/></g></g></g></g></svg>