<svg id="Layer_1" data-name="Layer 1" xmlns="http://www.w3.org/2000/svg" viewBox="0 0 276 265"><defs><style>.cls-1{fill:#fff;}.cls-2{fill:#e6e6e6;}.cls-3{fill:#978f88;}.cls-4{fill:#605755;}.cls-5{fill:#572279;}.cls-6{fill:#fba60b;}.cls-7{fill:#ff5000;}.cls-8{fill:#070606;}</style></defs><title>administracion_icono</title><rect class="cls-1" x="10.98" y="38.3" width="254.03" height="175.07" rx="15.83"/><rect class="cls-1" x="20.73" y="48.04" width="234.54" height="141.68" rx="6.09"/><path class="cls-2" d="M41.64,183.63V54.13A6.09,6.09,0,0,1,47.72,48H26.82a6.11,6.11,0,0,0-6.09,6.09v129.5a6.11,6.11,0,0,0,6.09,6.09h20.9A6.09,6.09,0,0,1,41.64,183.63Z"/><path class="cls-2" d="M234.36,183.63V54.13A6.09,6.09,0,0,0,228.28,48h20.9a6.11,6.11,0,0,1,6.09,6.09v129.5a6.11,6.11,0,0,1-6.09,6.09h-20.9A6.09,6.09,0,0,0,234.36,183.63Z"/><path class="cls-3" d="M93.75,239h88.5v10.65H93.75Z"/><path class="cls-4" d="M93.75,239h20.91v10.65H93.75Z"/><path class="cls-3" d="M106.34,213.36h63.32V239H106.34Z"/><path class="cls-4" d="M106.34,213.36h20.9V239h-20.9Z"/><circle class="cls-3" cx="138" cy="201.54" r="5.21"/><path class="cls-1" d="M206.51,32.8,175.73,2H69.49v187.7h137Z"/><circle class="cls-3" cx="138" cy="78.24" r="36.12"/><path class="cls-5" d="M138,127.82h0a11.29,11.29,0,0,1,11.29,11.29v39.32A11.29,11.29,0,0,1,138,189.72h0a11.29,11.29,0,0,1-11.29-11.29V139.11A11.29,11.29,0,0,1,138,127.82Z"/><path class="cls-6" d="M138,55.13V78.24H114.89A23.11,23.11,0,1,0,138,55.13Z"/><path class="cls-7" d="M138,55.13a23.11,23.11,0,0,0-23.11,23.11H138Z"/><path class="cls-6" d="M4,64.75h77v95.87H4Z"/><path class="cls-7" d="M4,64.75H24.87v95.87H4Z"/><path class="cls-7" d="M194.82,64.75h77v95.87h-77Z"/><circle class="cls-1" cx="42.45" cy="85.16" r="10.75"/><path class="cls-5" d="M37.86,95.91H47a10.23,10.23,0,0,1,10.24,10.23h0v17.92H27.63V106.14A10.23,10.23,0,0,1,37.86,95.91Z"/><path class="cls-6" d="M250.88,64.75h20.91v95.87H250.88Z"/><path class="cls-8" d="M138,194.63a6.91,6.91,0,1,0,6.91,6.91A6.91,6.91,0,0,0,138,194.63Zm0,10.43a3.52,3.52,0,1,1,3.52-3.52,3.52,3.52,0,0,1-3.52,3.52Z"/><path class="cls-8" d="M22.6,261.28H1.7a1.7,1.7,0,1,0,0,3.39H22.6a1.7,1.7,0,1,0,0-3.39Z"/><path class="cls-8" d="M274.3,261.28H253.4a1.7,1.7,0,1,0,0,3.39h20.9a1.7,1.7,0,1,0,0-3.39Z"/><path class="cls-8" d="M236.7,261.28H39.3a1.7,1.7,0,1,0,0,3.39H236.7a1.7,1.7,0,1,0,0-3.39Z"/><path class="cls-8" d="M1.7,251.39h9a1.7,1.7,0,1,0,0-3.39h-9a1.7,1.7,0,1,0,0,3.39Z"/><path class="cls-8" d="M263.63,249.69a1.7,1.7,0,0,0,1.7,1.7h9a1.7,1.7,0,1,0,0-3.39h-9a1.7,1.7,0,0,0-1.7,1.69Z"/><path class="cls-8" d="M138,53.43a24.81,24.81,0,1,0,24.81,24.81h0A24.85,24.85,0,0,0,138,53.43Zm-1.7,3.46V76.55H116.65A21.46,21.46,0,0,1,136.3,56.89ZM138,99.66a21.45,21.45,0,0,1-21.35-19.72H138a1.7,1.7,0,0,0,1.7-1.7V56.89A21.42,21.42,0,0,1,138,99.66Z"/><path class="cls-8" d="M4,162.31H9.29v35.22a17.54,17.54,0,0,0,17.53,17.53h77.82v22.28H93.75a1.7,1.7,0,0,0-1.69,1.7v9H22.6a1.7,1.7,0,0,0,0,3.39H253.4a1.7,1.7,0,0,0,0-3.39H183.94v-9a1.7,1.7,0,0,0-1.69-1.7H171.36V215.06h77.82a17.54,17.54,0,0,0,17.53-17.53V162.31h5.08a1.69,1.69,0,0,0,1.69-1.69V64.75a1.7,1.7,0,0,0-1.69-1.7h-5.08V54.12A17.54,17.54,0,0,0,249.18,36.6h-41V32.8a1.7,1.7,0,0,0-.5-1.2L176.93.83a1.7,1.7,0,0,0-1.2-.5H69.49A1.7,1.7,0,0,0,67.79,2V36.61h-41A17.54,17.54,0,0,0,9.29,54.13v8.93H4a1.69,1.69,0,0,0-1.7,1.69v95.87A1.69,1.69,0,0,0,4,162.31ZM180.55,248H95.45v-7.27h85.1ZM168,237.34H108V215.06H168Zm95.35-39.81a14.15,14.15,0,0,1-14.14,14.14H26.82a14.15,14.15,0,0,1-14.14-14.14V162.31H19v21.32a7.79,7.79,0,0,0,7.79,7.78H249.18a7.79,7.79,0,0,0,7.79-7.78V162.31h6.35ZM80.93,162.31a1.69,1.69,0,0,0,1.69-1.69V79.94h17.6A37.86,37.86,0,0,0,136.3,116v10.23A13,13,0,0,0,125,139.11v39.33a13,13,0,0,0,4.26,9.59H71.18V162.32Zm112.2-82.37v80.68a1.69,1.69,0,0,0,1.69,1.69h10V188h-58.1a12.92,12.92,0,0,0,4.26-9.59V139.11a13,13,0,0,0-11.28-12.86V116a37.86,37.86,0,0,0,36.08-36.08Zm60.45,82.37v21.32a4.4,4.4,0,0,1-4.4,4.39h-41V162.31ZM128.41,178.43V139.11a9.59,9.59,0,0,1,19.18,0v39.32a9.59,9.59,0,0,1-19.18,0ZM138,112.67a34.43,34.43,0,1,1,34.43-34.43h0A34.46,34.46,0,0,1,138,112.67ZM67.79,188h-41a4.39,4.39,0,0,1-4.4-4.39V162.31H67.79Zm202.3-29.1H196.52V66.44h73.57ZM177.43,6.12l25,25h-25Zm30.78,43.61h41a4.41,4.41,0,0,1,4.4,4.4v8.93H208.21Zm41-9.74a14.15,14.15,0,0,1,14.14,14.14v8.93H257V54.13a7.81,7.81,0,0,0-7.79-7.79h-41V40ZM174,3.72V32.8a1.7,1.7,0,0,0,1.69,1.7h29.09V63.05h-10a1.7,1.7,0,0,0-1.69,1.7v11.8H175.78a37.82,37.82,0,0,0-75.56,0H82.62V64.75a1.7,1.7,0,0,0-1.69-1.7H71.18V3.72ZM67.79,63.05H22.42V54.12a4.41,4.41,0,0,1,4.4-4.4h41ZM12.68,54.12A14.16,14.16,0,0,1,26.82,40h41v6.35h-41A7.81,7.81,0,0,0,19,54.13v8.93H12.68Zm-7,12.32H79.23v92.48H5.66Z"/><path class="cls-8" d="M27.63,125.75H57.27A1.69,1.69,0,0,0,59,124.06V106.14a11.94,11.94,0,0,0-8.54-11.43,12.44,12.44,0,1,0-17.53-1.59,11.94,11.94,0,0,0,1.59,1.59,12,12,0,0,0-8.55,11.43v17.92A1.69,1.69,0,0,0,27.63,125.75Zm5.76-40.59a9.06,9.06,0,1,1,9,9h0a9.06,9.06,0,0,1-9-9Zm-4.07,21a8.56,8.56,0,0,1,8.54-8.54H47a8.55,8.55,0,0,1,8.54,8.54v16.22H29.32Z"/><path class="cls-8" d="M69.66,130.58H15.23a1.7,1.7,0,1,0,0,3.39H69.66a1.7,1.7,0,1,0,0-3.39Z"/><path class="cls-8" d="M69.66,138.79H15.23a1.7,1.7,0,1,0,0,3.39H69.66a1.7,1.7,0,1,0,0-3.39Z"/><path class="cls-8" d="M69.66,147H15.23a1.7,1.7,0,1,0,0,3.39H69.66a1.7,1.7,0,1,0,0-3.39Z"/><circle class="cls-1" cx="213.94" cy="113.66" r="7.14"/><path class="cls-8" d="M233,97.68a5.34,5.34,0,1,0-5.33-5.33A5.34,5.34,0,0,0,233,97.68Zm0-8.54a3.21,3.21,0,1,1-3.2,3.21A3.21,3.21,0,0,1,233,89.14Z"/><path class="cls-8" d="M251.14,127.56h2.14a1.06,1.06,0,0,1,1.06,1.07,1.07,1.07,0,0,0,2.14,0,3.21,3.21,0,0,0-3.2-3.21v-1.06a1.07,1.07,0,0,0-2.14,0v1.06a3.21,3.21,0,0,0,0,6.41h2.14a1.07,1.07,0,0,1,0,2.13h-2.14a1.06,1.06,0,0,1-1.06-1.07,1.07,1.07,0,0,0-2.14,0,3.2,3.2,0,0,0,3.2,3.2v1.07a1.07,1.07,0,1,0,2.14,0v-1.07a3.2,3.2,0,1,0,0-6.4h-2.14a1.07,1.07,0,0,1,0-2.13Z"/><path class="cls-8" d="M257.55,118.43V116l2.08-6.23a1.09,1.09,0,0,0-.15-1,1.07,1.07,0,0,0-.87-.45h-5.33v-16a1.07,1.07,0,0,0-1.07-1.07h-5.33V90.21a1.07,1.07,0,0,0-1.07-1.07h-2.63a9.89,9.89,0,0,0-.71-1.72l1.86-1.86a1.09,1.09,0,0,0,0-1.52l-3-3a1.09,1.09,0,0,0-1.52,0l-1.86,1.86a9.68,9.68,0,0,0-1.73-.71V79.54a1.06,1.06,0,0,0-1.06-1.07h-4.27a1.07,1.07,0,0,0-1.07,1.07v2.63a10.32,10.32,0,0,0-1.73.71L226.22,81a1.09,1.09,0,0,0-1.52,0l-3,3a1.09,1.09,0,0,0,0,1.52l1.86,1.86a10.78,10.78,0,0,0-.72,1.72H220.2a1.07,1.07,0,0,0-1.07,1.07v1.07H213.8a1.07,1.07,0,0,0-1.07,1.07v13.33h.37a8.41,8.41,0,0,0-4.75,1.91,8.51,8.51,0,0,0-1.09,12,8.63,8.63,0,0,0,1.09,1.09l.41.34-.51.15a8.2,8.2,0,0,0-5.83,7.81v12.65a.91.91,0,0,0,.91.91h20.93a.91.91,0,0,0,.91-.91v-8.7h14.29c.52,5.87,5.41,9.61,12.75,9.61,7.78,0,12.81-4.2,12.81-10.67A16.28,16.28,0,0,0,257.55,118.43Zm-.42-7.94-1.42,4.26h-7l-1.42-4.26Zm-1.72,6.4V118H249v-1.06ZM221.27,91.28h2.36a1.06,1.06,0,0,0,1-.83,8.72,8.72,0,0,1,1.11-2.65,1.07,1.07,0,0,0-.15-1.32l-1.69-1.68,1.52-1.51L227.14,85a1.06,1.06,0,0,0,1.32.15A8.77,8.77,0,0,1,231.1,84a1.06,1.06,0,0,0,.84-1V80.61h2.13V83a1.06,1.06,0,0,0,.83,1,8.83,8.83,0,0,1,2.65,1.11,1.06,1.06,0,0,0,1.32-.15l1.68-1.68,1.51,1.51-1.68,1.68a1,1,0,0,0-.15,1.32,8.72,8.72,0,0,1,1.11,2.65,1.05,1.05,0,0,0,1,.83h2.37v2.13h-2.37a1.05,1.05,0,0,0-1,.83,8.72,8.72,0,0,1-1.11,2.65,1,1,0,0,0,.15,1.32l1.68,1.68-1.51,1.51-1.68-1.68a1.07,1.07,0,0,0-1.32-.15,9.09,9.09,0,0,1-2.65,1.11,1.06,1.06,0,0,0-.83,1v2.37h-2.13v-2.37a1.06,1.06,0,0,0-.84-1,9,9,0,0,1-2.64-1.11,1.07,1.07,0,0,0-1.32.15l-1.68,1.68-1.52-1.51,1.69-1.68a1.07,1.07,0,0,0,.15-1.32,8.72,8.72,0,0,1-1.11-2.65,1.06,1.06,0,0,0-1-.83h-2.36ZM207.12,114.4h0v-.28a6.67,6.67,0,0,1,6.68-6.68h0a6.68,6.68,0,1,1,0,13.36A6.7,6.7,0,0,1,207.12,114.4Zm16.23,26.28H204.24V128.93a6.32,6.32,0,0,1,6.31-6.31H217a6.32,6.32,0,0,1,6.32,6.31Zm16.1-9.92H225.17v-1.82a8.21,8.21,0,0,0-5.83-7.81l-.51-.15.41-.34a8.45,8.45,0,0,0-4.38-14.91V93.41h4.27v1.07a1.07,1.07,0,0,0,1.07,1.07h2.62a10.78,10.78,0,0,0,.72,1.72l-1.86,1.86a1.09,1.09,0,0,0,0,1.52l3,3a1.09,1.09,0,0,0,1.52,0l1.85-1.86a10.32,10.32,0,0,0,1.73.71v2.63a1.07,1.07,0,0,0,1.07,1.07h4.27a1.06,1.06,0,0,0,1.06-1.07v-2.63a9.68,9.68,0,0,0,1.73-.71l1.86,1.86a1.09,1.09,0,0,0,1.52,0l3-3a1.09,1.09,0,0,0,0-1.52l-1.86-1.86a9.89,9.89,0,0,0,.71-1.72h2.63a1.07,1.07,0,0,0,1.07-1.07V93.41h4.26v14.94h-5.33a1.07,1.07,0,0,0-.87.45,1.09,1.09,0,0,0-.15,1l2.09,6.23v2.44A16.3,16.3,0,0,0,239.45,130.76Zm12.76,9.6c-2.51,0-10.67-.62-10.67-8.53a14.14,14.14,0,0,1,6.73-11.74h7.88a14.12,14.12,0,0,1,6.73,11.74C262.88,139.74,254.72,140.36,252.21,140.36Z"/><polygon class="cls-6" points="257.13 110.48 255.71 114.75 248.71 114.75 247.29 110.48 257.13 110.48"/><rect class="cls-6" x="249.01" y="116.89" width="6.4" height="1.07"/><path class="cls-7" d="M221.27,91.28h2.36a1.06,1.06,0,0,0,1-.83,8.72,8.72,0,0,1,1.11-2.65,1.07,1.07,0,0,0-.15-1.32l-1.69-1.68,1.52-1.51L227.14,85a1.06,1.06,0,0,0,1.32.15A8.77,8.77,0,0,1,231.1,84a1.06,1.06,0,0,0,.84-1V80.61h2.13V83a1.06,1.06,0,0,0,.83,1,8.83,8.83,0,0,1,2.65,1.11,1.06,1.06,0,0,0,1.32-.15l1.68-1.68,1.51,1.51-1.68,1.68a1,1,0,0,0-.15,1.32,8.72,8.72,0,0,1,1.11,2.65,1.05,1.05,0,0,0,1,.83h2.37v2.13h-2.37a1.05,1.05,0,0,0-1,.83,8.72,8.72,0,0,1-1.11,2.65,1,1,0,0,0,.15,1.32l1.68,1.68-1.51,1.51-1.68-1.68a1.07,1.07,0,0,0-1.32-.15,9.09,9.09,0,0,1-2.65,1.11,1.06,1.06,0,0,0-.83,1v2.37h-2.13v-2.37a1.06,1.06,0,0,0-.84-1,9,9,0,0,1-2.64-1.11,1.07,1.07,0,0,0-1.32.15l-1.68,1.68-1.52-1.51,1.69-1.68a1.07,1.07,0,0,0,.15-1.32,8.72,8.72,0,0,1-1.11-2.65,1.06,1.06,0,0,0-1-.83h-2.36Z"/><path class="cls-5" d="M223.35,140.68H204.24V128.93a6.32,6.32,0,0,1,6.31-6.31H217a6.32,6.32,0,0,1,6.32,6.31Z"/><path class="cls-6" d="M252.21,140.36c-2.51,0-10.67-.62-10.67-8.53a14.14,14.14,0,0,1,6.73-11.74h7.88a14.12,14.12,0,0,1,6.73,11.74C262.88,139.74,254.72,140.36,252.21,140.36Z"/><path class="cls-8" d="M233,97.68a5.34,5.34,0,1,0-5.33-5.33A5.34,5.34,0,0,0,233,97.68Z"/><path class="cls-7" d="M233,89.14a3.21,3.21,0,1,1-3.2,3.21A3.21,3.21,0,0,1,233,89.14Z"/><path class="cls-8" d="M251.14,127.56h2.14a1.06,1.06,0,0,1,1.06,1.07,1.07,1.07,0,0,0,2.14,0,3.21,3.21,0,0,0-3.2-3.21v-1.06a1.07,1.07,0,0,0-2.14,0v1.06a3.21,3.21,0,0,0,0,6.41h2.14a1.07,1.07,0,0,1,0,2.13h-2.14a1.06,1.06,0,0,1-1.06-1.07,1.07,1.07,0,0,0-2.14,0,3.2,3.2,0,0,0,3.2,3.2v1.07a1.07,1.07,0,1,0,2.14,0v-1.07a3.2,3.2,0,1,0,0-6.4h-2.14a1.07,1.07,0,0,1,0-2.13Z"/></svg>