<svg xmlns="http://www.w3.org/2000/svg" viewBox="0 0 734.02 879.25"><defs><style>.cls-1{fill:#efefee;}.cls-2{fill:#f4f4f3;}</style></defs><title>equality_bg_iso</title><g id="Layer_2" data-name="Layer 2"><g id="Quienes_somos" data-name="Quienes somos"><g id="Main"><g id="bgMain"><path class="cls-1" d="M72.93,74.8h0C134.3,38.19,215.54,50.27,269.23,104L694,528.22C655.51,580.31,577.32,582,528.63,530.5Z"/><path class="cls-2" d="M285.64,87.56l48.89,48.83a237.71,237.71,0,0,1,37.17-2.26c124.85,2.31,226.64,104.35,228.67,229.22a235.93,235.93,0,0,1-2.23,36.35L706,507.4c.47-1.07,1.06-2,1.52-3.16A366,366,0,0,0,734,367.38C734.21,165.51,569.13.15,367.27,0A365.54,365.54,0,0,0,203.63,38.37a195.34,195.34,0,0,1,82,49.19"/><path class="cls-2" d="M478.84,715.65c-24.37-24.38-36.19-57-33.31-91.86a125.2,125.2,0,0,1,10.79-41.24,232.08,232.08,0,0,1-94.75,17.73c-124.07-3-224.93-104.23-227.37-228.35A232.23,232.23,0,0,1,186,220.68l-95.2-95.2A365.48,365.48,0,0,0,0,367.42C.22,569.76,166.33,734.92,368.67,734a366.58,366.58,0,0,0,110.89-17.63Z"/><path class="cls-2" d="M675.27,879.25h0l-180-180c-43-43-32.36-114.2,16.76-149.27L675.27,712.12a118.2,118.2,0,0,1,0,167.13"/><path class="cls-2" d="M72.93,74.8h0C134.3,38.19,215.54,50.27,269.23,104L694,528.22C655.51,580.31,577.32,582,528.63,530.5Z"/></g></g></g></g></svg>