<svg id="Layer_1" data-name="Layer 1" xmlns="http://www.w3.org/2000/svg" viewBox="0 0 276 212.71"><defs><style>.cls-1{fill:#070606;}.cls-2{fill:#767688;}.cls-3{fill:#5c5c76;}.cls-4{fill:#eeedee;}.cls-5{fill:#d7d7d9;}.cls-6{fill:#aaa8af;}.cls-7{fill:#572279;}.cls-8{fill:#47075e;}.cls-9{fill:#ff0001;}.cls-10{fill:#cd0005;}</style></defs><title>bloqueo_icono</title><path class="cls-1" d="M22.6,218.79H1.7a1.7,1.7,0,1,0,0,3.39H22.6a1.7,1.7,0,1,0,0-3.39Z" transform="translate(0 -26.14)"/><path class="cls-1" d="M274.3,218.79H253.4a1.7,1.7,0,1,0,0,3.39h20.9a1.7,1.7,0,1,0,0-3.39Z" transform="translate(0 -26.14)"/><path class="cls-1" d="M236.7,218.79H39.3a1.7,1.7,0,1,0,0,3.39H236.7a1.7,1.7,0,1,0,0-3.39Z" transform="translate(0 -26.14)"/><path class="cls-1" d="M39.54,235.46H22a1.73,1.73,0,0,0,0,3.4H39.54a1.73,1.73,0,0,0,0-3.4Z" transform="translate(0 -26.14)"/><path class="cls-1" d="M250.28,235.46h-17.5a1.73,1.73,0,0,0,0,3.4h17.5a1.73,1.73,0,0,0,0-3.4Z" transform="translate(0 -26.14)"/><path class="cls-1" d="M218.8,235.46H53.52a1.73,1.73,0,0,0,0,3.4H218.8a1.73,1.73,0,0,0,0-3.4Z" transform="translate(0 -26.14)"/><path class="cls-2" d="M178.2,219.67H97.8A12.37,12.37,0,0,1,85.43,207.3v-167A12.37,12.37,0,0,1,97.8,28h80.4a12.37,12.37,0,0,1,12.37,12.37v167A12.37,12.37,0,0,1,178.2,219.67Z" transform="translate(0 -26.14)"/><path class="cls-3" d="M97.8,207.3v-167A12.37,12.37,0,0,1,110.17,28H97.8A12.37,12.37,0,0,0,85.43,40.33v167A12.37,12.37,0,0,0,97.8,219.67h12.37A12.37,12.37,0,0,1,97.8,207.3Z" transform="translate(0 -26.14)"/><rect class="cls-4" x="85.43" y="23.46" width="105.13" height="145.33"/><rect class="cls-5" x="85.43" y="23.46" width="12.37" height="145.33"/><path class="cls-6" d="M144.18,80.53H131.82a17,17,0,0,0-17,17v29.38a4.64,4.64,0,0,0,9.28,0V97.53a7.74,7.74,0,0,1,7.73-7.73h12.36a7.74,7.74,0,0,1,7.73,7.73v29.38a4.64,4.64,0,0,0,9.28,0V97.53A17,17,0,0,0,144.18,80.53Z" transform="translate(0 -26.14)"/><path class="cls-7" d="M172,176.38H104V133.09a9.27,9.27,0,0,1,9.27-9.27h49.48a9.27,9.27,0,0,1,9.27,9.27Z" transform="translate(0 -26.14)"/><path class="cls-8" d="M125.63,123.82H113.26a9.27,9.27,0,0,0-9.27,9.27v43.29h12.37V133.09A9.27,9.27,0,0,1,125.63,123.82Z" transform="translate(0 -26.14)"/><path class="cls-2" d="M147.28,145.46A9.28,9.28,0,1,0,134.43,154l-2.61,10h12.36l-2.61-10A9.27,9.27,0,0,0,147.28,145.46Z" transform="translate(0 -26.14)"/><circle class="cls-9" cx="162.74" cy="63.66" r="18.55"/><path class="cls-10" d="M172,105.26a18.55,18.55,0,0,1-10.3-34,18.55,18.55,0,1,0,11.33,34C172.7,105.25,172.36,105.26,172,105.26Z" transform="translate(0 -26.14)"/><path class="cls-1" d="M178.2,26.14H97.8A14.2,14.2,0,0,0,83.62,40.33v167A14.2,14.2,0,0,0,97.8,221.49h80.4a14.2,14.2,0,0,0,14.18-14.19V150.48a1.82,1.82,0,0,0-3.63,0v42.64H87.25V51.42h101.5v85.92a1.82,1.82,0,1,0,3.63,0v-97A14.2,14.2,0,0,0,178.2,26.14Zm10.55,170.61V207.3a10.56,10.56,0,0,1-10.55,10.55H97.8A10.56,10.56,0,0,1,87.25,207.3V196.75Zm0-149H87.25V40.33A10.56,10.56,0,0,1,97.8,29.78h80.4a10.56,10.56,0,0,1,10.55,10.55Z" transform="translate(0 -26.14)"/><path class="cls-1" d="M140.23,36.08h-4.46a2.09,2.09,0,0,0,0,4.18h4.46a2.09,2.09,0,1,0,0-4.18Z" transform="translate(0 -26.14)"/><path class="cls-1" d="M151.37,36.08h-2.23a2.09,2.09,0,1,0,0,4.18h2.23a2.09,2.09,0,1,0,0-4.18Z" transform="translate(0 -26.14)"/><path class="cls-1" d="M126.86,36.08h-2.23a2.09,2.09,0,1,0,0,4.18h2.23a2.09,2.09,0,0,0,0-4.18Z" transform="translate(0 -26.14)"/><path class="cls-1" d="M133.79,209.28h8.42a2,2,0,0,0,0-3.95h-8.42a2,2,0,0,0,0,3.95Z" transform="translate(0 -26.14)"/><path class="cls-1" d="M143.7,155l.63-.43a11.09,11.09,0,1,0-12.66,0l.63.43-2.24,8.54a1.84,1.84,0,0,0,1.76,2.28h12.36a1.84,1.84,0,0,0,1.76-2.28Zm-3.89-.52,2,7.71h-7.66l2-7.72a1.82,1.82,0,0,0-1.06-2.13,7.46,7.46,0,1,1,5.74,0A1.83,1.83,0,0,0,139.81,154.49Z" transform="translate(0 -26.14)"/><path class="cls-1" d="M164,110.13A20.37,20.37,0,1,0,146,78.26l-.33.49-.6,0-.85,0H131.82A18.85,18.85,0,0,0,113,97.53V122l-1,.11a11.08,11.08,0,0,0-9.86,11v43.29A1.82,1.82,0,0,0,104,178.2h68a1.82,1.82,0,0,0,1.82-1.82V133.09a11.08,11.08,0,0,0-9.86-11l-1-.11V110.19Zm-14.31-4.68.39.32V122H125.9V97.53a5.92,5.92,0,0,1,5.92-5.91h10.61l.13.94A20.31,20.31,0,0,0,149.71,105.45Zm-33.08-7.92a15.21,15.21,0,0,1,15.19-15.19h11.9l-.43,1.41a20,20,0,0,0-.73,3.3l-.13.94H131.82a9.55,9.55,0,0,0-9.55,9.54V122h-5.64Zm53.57,35.56v41.47H105.8V133.09a7.47,7.47,0,0,1,7.46-7.46h49.48A7.47,7.47,0,0,1,170.2,133.09ZM153.73,122V108.13l1.49.6a19.29,19.29,0,0,0,3.3,1l.85.18V122Zm9-15.46A16.74,16.74,0,1,1,179.47,89.8,16.76,16.76,0,0,1,162.74,106.54Z" transform="translate(0 -26.14)"/><path class="cls-1" d="M162.74,92A2.21,2.21,0,0,0,165,89.8V82.74a2.21,2.21,0,1,0-4.42,0V89.8A2.21,2.21,0,0,0,162.74,92Z" transform="translate(0 -26.14)"/><circle class="cls-1" cx="162.74" cy="70.73" r="2.21"/></svg>