<svg xmlns="http://www.w3.org/2000/svg" viewBox="0 0 419.48 423.26"><defs><style>.cls-1,.cls-30{fill:#626467;}.cls-1,.cls-2,.cls-3,.cls-4,.cls-5,.cls-6,.cls-7{stroke:#626467;}.cls-1,.cls-2,.cls-4,.cls-5,.cls-6,.cls-7{stroke-linecap:round;stroke-linejoin:round;stroke-width:0.25px;}.cls-2,.cls-3{fill:none;}.cls-3{stroke-miterlimit:10;}.cls-4{fill:#8889c0;}.cls-27,.cls-5{fill:#ff5000;}.cls-6,.cls-9{fill:#a8a9ab;}.cls-7{fill:#6768af;}.cls-8{fill:#c9c9cb;}.cls-10,.cls-13{font-size:7.81px;}.cls-10,.cls-12,.cls-20{fill:#fff;}.cls-10,.cls-12{font-family:HelveticaNeueLT-75Bd, Neue Helvetica;}.cls-11,.cls-20{font-size:3.73px;}.cls-11,.cls-13,.cls-14,.cls-37{fill:#352e2f;}.cls-11,.cls-13,.cls-14,.cls-20,.cls-37{font-family:HelveticaNeueLT-65Md, Neue Helvetica;}.cls-11,.cls-13,.cls-14,.cls-20,.cls-30,.cls-37{font-weight:500;}.cls-12,.cls-37{font-size:6.48px;}.cls-14{font-size:2.8px;}.cls-15{letter-spacing:-0.07em;}.cls-16{letter-spacing:-0.07em;}.cls-17{letter-spacing:0em;}.cls-18{letter-spacing:-0.07em;}.cls-19{letter-spacing:0em;}.cls-21{letter-spacing:-0.07em;}.cls-22{letter-spacing:-0.07em;}.cls-23{letter-spacing:-0.09em;}.cls-24{letter-spacing:-0.09em;}.cls-25{letter-spacing:-0.05em;}.cls-26{letter-spacing:-0.09em;}.cls-28,.cls-36{fill:#572279;}.cls-29{fill:#d1d2d3;}.cls-30{font-size:6.42px;font-family:HelveticaNeue-Medium, HelveticaNeue Medium;}.cls-31{letter-spacing:-0.03em;}.cls-32{letter-spacing:0em;}.cls-33{letter-spacing:-0.01em;}.cls-34{letter-spacing:0em;}.cls-35{letter-spacing:-0.01em;}.cls-36{font-size:3.45px;font-family:OpenSans-Regular, Open Sans;letter-spacing:0.1em;}</style></defs><title>continente_equality</title><g id="Layer_2" data-name="Layer 2"><g id="Quienes_somos" data-name="Quienes somos"><g id="Main"><g id="Section_Ecosistema" data-name="Section Ecosistema"><path class="cls-1" d="M221.68,420.73l-.36-6.52c107.39-6,191.51-95.1,191.51-202.76a203,203,0,0,0-49.52-132.9l4.94-4.27a209.51,209.51,0,0,1,51.11,137.17C419.36,322.57,332.53,414.5,221.68,420.73Z"/><path class="cls-1" d="M66.16,364.17A209.62,209.62,0,0,1,209.74,1.83V8.36A203,203,0,0,0,70.64,359.42Z"/><path class="cls-1" d="M261.18.66l-3.26,3-1.8-.16,2.21-3ZM224.6.13,218.53,12.7l2.88.25,1.28-2.8,4.86.43.73,3,3,.26L227.54.38Zm-1,8,2.12-4.62h0L227,8.38Z"/><path class="cls-1" d="M238.22,1.65l1.6,9.35h0l4.27-8.41,4,.64-2.06,12.89-2.65-.42,1.46-9.14h0l-4.62,8.64L238,14.85l-1.71-9.56h0l-1.44,9.05-2.66-.43L234.23,1Z"/><path class="cls-1" d="M260.77,6.13l-.55,2.35-6.71-1.55-.63,2.72L259,11.08l-.5,2.17-6.17-1.42L251.65,15l6.86,1.58L258,18.88l-9.66-2.23,2.94-12.72Z"/><path class="cls-1" d="M270.13,8.8a4.27,4.27,0,0,1,1.43.72,3.72,3.72,0,0,1,.94,1.09,3.24,3.24,0,0,1,.41,1.31,3.64,3.64,0,0,1-.14,1.42,3.87,3.87,0,0,1-1,1.77,3,3,0,0,1-1.88.78v0a2.25,2.25,0,0,1,.72.68,2.8,2.8,0,0,1,.34.84,3.4,3.4,0,0,1,0,1,8.15,8.15,0,0,1-.15,1c-.05.2-.11.44-.17.71s-.13.55-.19.84a6.32,6.32,0,0,0-.09.84,1.9,1.9,0,0,0,.1.73l-2.75-.82a5.08,5.08,0,0,1,.13-1.5c.13-.56.23-1.1.31-1.63A2.54,2.54,0,0,0,268,17a2.15,2.15,0,0,0-1.35-.9l-2.76-.81-1.44,4.89-2.76-.81,3.7-12.53Zm-2.66,5.38a2.17,2.17,0,0,0,1.54,0,1.77,1.77,0,0,0,.88-1.22,1.77,1.77,0,0,0-.08-1.47,2.2,2.2,0,0,0-1.3-.83l-3-.89-1,3.52Z"/><path class="cls-1" d="M279.13,11.76,274.87,24.1l-2.71-.93,4.26-12.35Z"/><path class="cls-1" d="M288.46,19a3,3,0,0,0-.33-.91,2.88,2.88,0,0,0-.63-.77,2.94,2.94,0,0,0-.88-.54,3.4,3.4,0,0,0-1.67-.25,3,3,0,0,0-1.39.53,4.15,4.15,0,0,0-1.1,1.11,6.91,6.91,0,0,0-.79,1.47,6.65,6.65,0,0,0-.41,1.56,4.34,4.34,0,0,0,.05,1.53,3.14,3.14,0,0,0,.66,1.33,3.21,3.21,0,0,0,1.39.95,2.62,2.62,0,0,0,2.21,0,3.72,3.72,0,0,0,1.62-1.64l2.58,1a6.43,6.43,0,0,1-1.34,1.85,5.12,5.12,0,0,1-3.76,1.46,6.27,6.27,0,0,1-2.19-.48,6.66,6.66,0,0,1-2.32-1.48,5.57,5.57,0,0,1-1.35-2.08,6.29,6.29,0,0,1-.38-2.46,7.93,7.93,0,0,1,.57-2.64,8.26,8.26,0,0,1,1.41-2.36,6.58,6.58,0,0,1,2-1.57,5.77,5.77,0,0,1,2.41-.61,6.49,6.49,0,0,1,2.71.5,6.41,6.41,0,0,1,1.78,1,5.48,5.48,0,0,1,1.26,1.47,4.86,4.86,0,0,1,.63,1.83A5.25,5.25,0,0,1,291,21l-2.58-1A2.59,2.59,0,0,0,288.46,19Z"/><path class="cls-1" d="M301,20.79l-1.13,13.9-2.7-1.27.35-3.05-4.42-2.08-2.17,2.2-2.61-1.23,10-9.72Zm-3.25,7.32.54-5,0,0-3.58,3.62Z"/><path class="cls-1" d="M314.07,27.59l-5.28,9.25L314.32,40l-1.19,2.1-8-4.57,6.47-11.35Z"/><path class="cls-1" d="M326.91,35.4l-3,13.62-2.51-1.61.75-3-4.1-2.65-2.44,1.88-2.43-1.57,11.24-8.28Zm-4.21,6.82,1.22-4.92,0,0-4,3.11Z"/><path class="cls-1" d="M328.7,39.43l1.41-2,8.69,6.24-1.4,2-3.18-2.28L328,52l-2.33-1.68,6.2-8.65Z"/><path class="cls-1" d="M342.55,46.68l-8,10.3-2.26-1.77,8-10.3Z"/><path class="cls-1" d="M347.06,50.34l-1.55,10.2,0,0,5.7-6.66,2,1.75-8.49,9.92-2.18-1.86,1.56-10.18,0,0-5.68,6.64L336.4,58.4l8.5-9.92Z"/><path class="cls-1" d="M360.27,62.33l-5.6,12.77L352.53,73l1.32-2.77-3.5-3.4-2.76,1.37-2.08-2,12.65-5.92Zm-5.47,5.86L357,63.61l0,0-4.56,2.25Z"/><path class="cls-1" d="M314.07,27.59l-5.28,9.25L314.32,40l-1.19,2.1-8-4.57,6.47-11.35Z"/><path class="cls-1" d="M326.91,35.4l-3,13.62-2.51-1.61.75-3-4.1-2.65-2.44,1.88-2.43-1.57,11.24-8.28Zm-4.21,6.82,1.22-4.92,0,0-4,3.11Z"/><path class="cls-1" d="M328.7,39.43l1.41-2,8.69,6.24-1.4,2-3.18-2.28L328,52l-2.33-1.68,6.2-8.65Z"/><path class="cls-1" d="M342.55,46.68l-8,10.3-2.26-1.77,8-10.3Z"/><path class="cls-1" d="M347.06,50.34l-1.55,10.2,0,0,5.7-6.66,2,1.75-8.49,9.92-2.18-1.86,1.56-10.18,0,0-5.68,6.64L336.4,58.4l8.5-9.92Z"/><path class="cls-1" d="M360.27,62.33l-5.6,12.77L352.53,73l1.32-2.77-3.5-3.4-2.76,1.37-2.08-2,12.65-5.92Zm-5.47,5.86L357,63.61l0,0-4.56,2.25Z"/><path class="cls-1" d="M86.31,364.94l-6.79,8.19,4.9,4.06-1.54,1.86-7.12-5.89L84.1,363.1Z"/><path class="cls-1" d="M97.49,373.66,93.7,387.08l-2.4-1.77.92-2.93-3.93-2.89-2.55,1.74-2.33-1.71,11.71-7.6Zm-4.6,6.55,1.51-4.83,0,0-4.21,2.86Z"/><path class="cls-1" d="M98.61,377.49l1.33-2,8.94,5.88-1.33,2-3.27-2.15-5.85,8.9L96,388.54l5.85-8.9Z"/><path class="cls-1" d="M112.47,383.45l-6.72,11.2-2.46-1.48L110,382Z"/><path class="cls-1" d="M116.92,386l.66,10.29,0,0,4.13-7.72,2.37,1.27L118,401.38,115.42,400l-.65-10.27,0,0-4.13,7.71-2.37-1.27,6.17-11.51Z"/><path class="cls-1" d="M136.57,395.46,136,409.39l-2.75-1.16.23-3.06-4.5-1.91-2.08,2.28-2.66-1.12,9.64-10.11Zm-3,7.44.35-5,0,0-3.44,3.75Z"/><path class="cls-1" d="M145.6,399l0,9.48,0,0,5.62-7.59,3.83,1.3-4.18,12.37-2.55-.86,3-8.77h0l-6,7.74-2.1-.71-.1-9.7h0l-2.93,8.68-2.55-.86,4.18-12.38Z"/><path class="cls-1" d="M166.64,405.14l-.6,2.33-6.68-1.73-.7,2.71,6.13,1.59-.56,2.16-6.13-1.59-.8,3.1,6.82,1.77-.61,2.33-9.6-2.48,3.28-12.64Z"/><path class="cls-1" d="M175.27,406.85a4.16,4.16,0,0,1,1.5.58,3.52,3.52,0,0,1,1,1,3.32,3.32,0,0,1,.54,1.27,3.77,3.77,0,0,1,0,1.42,3.91,3.91,0,0,1-.86,1.87,3,3,0,0,1-1.79,1v0a2.33,2.33,0,0,1,.78.61,2.41,2.41,0,0,1,.42.81,3.19,3.19,0,0,1,.15.94c0,.34,0,.67,0,1s-.07.45-.11.73-.07.56-.09.85a6.14,6.14,0,0,0,0,.85,2.18,2.18,0,0,0,.17.71l-2.82-.54a5,5,0,0,1,0-1.51,16.3,16.3,0,0,0,.15-1.65,2.55,2.55,0,0,0-.33-1.59,2.15,2.15,0,0,0-1.43-.76l-2.82-.54-1,5-2.82-.54,2.45-12.82Zm-2.12,5.61a2.23,2.23,0,0,0,1.54-.15,1.81,1.81,0,0,0,.75-1.31,1.75,1.75,0,0,0-.22-1.45,2.21,2.21,0,0,0-1.38-.7l-3.09-.59-.69,3.61Z"/><path class="cls-1" d="M184,408.23l-1.85,12.93-2.85-.41,1.85-12.93Z"/><path class="cls-1" d="M194.23,412.86a3.13,3.13,0,0,0-.57-.78,3.17,3.17,0,0,0-.82-.57,3.28,3.28,0,0,0-1-.27,3.42,3.42,0,0,0-1.67.22,3.21,3.21,0,0,0-1.19.9,4.4,4.4,0,0,0-.74,1.37,6.84,6.84,0,0,0-.35,1.64,6.65,6.65,0,0,0,0,1.61,4.35,4.35,0,0,0,.48,1.45,3.1,3.1,0,0,0,1,1.1,3.34,3.34,0,0,0,1.6.53,2.69,2.69,0,0,0,2.13-.61,3.78,3.78,0,0,0,1.1-2l2.76.26a6.45,6.45,0,0,1-.77,2.15,5.31,5.31,0,0,1-1.36,1.57,5.21,5.21,0,0,1-1.85.89,6.29,6.29,0,0,1-2.23.15,6.63,6.63,0,0,1-2.64-.77,5.8,5.8,0,0,1-1.88-1.62,6.26,6.26,0,0,1-1.05-2.26,7.72,7.72,0,0,1-.19-2.69,8.08,8.08,0,0,1,.69-2.66,6.44,6.44,0,0,1,1.47-2.06,5.74,5.74,0,0,1,2.15-1.27,6.75,6.75,0,0,1,2.73-.27,6.46,6.46,0,0,1,2,.5,5.49,5.49,0,0,1,1.63,1.07,4.7,4.7,0,0,1,1.11,1.58,5.41,5.41,0,0,1,.43,2.06l-2.77-.26A2.46,2.46,0,0,0,194.23,412.86Z"/><path class="cls-1" d="M205.89,409.94l4.51,13.2-3-.09-.91-2.94-4.88-.14-1.11,2.88-2.88-.08L203,409.86Zm-.06,8-1.51-4.83h0l-1.84,4.74Z"/><polygon class="cls-2" points="280.62 142.15 279.5 143.48 278.71 144.09 279.5 143.48 280.62 142.15"/><polygon class="cls-2" points="164.47 105.44 171.04 105.54 171.04 105.54 164.47 105.44"/><polygon class="cls-2" points="169.94 118.9 170.32 118.62 169.29 119.38 169.94 118.9"/><polygon class="cls-2" points="262.99 164.76 263.24 163.5 263.02 163.09 263.24 163.5 262.99 164.76"/><polygon class="cls-2" points="257.06 265.46 256.56 264.44 256.56 264.44 257.06 265.46"/><polygon class="cls-2" points="289.62 252.6 289.27 252.2 288.85 251.72 289.62 252.6"/><polygon class="cls-2" points="272.47 158.24 272.47 158.24 271.85 157.94 272.47 158.24"/><polygon class="cls-2" points="264.23 167.29 264.55 166.95 266.32 166.6 264.54 166.95 264.23 167.29"/><polygon class="cls-2" points="242.22 191.49 242.13 191.12 241.94 190.3 242.22 191.49"/><polygon class="cls-2" points="254.9 171.08 256.4 172.24 257.28 172.36 256.4 172.24 254.9 171.08"/><polygon class="cls-2" points="251.43 150.33 252.04 150.65 252.27 152.11 252.04 150.65 251.43 150.33"/><polygon class="cls-2" points="236.62 147.57 237.23 147.26 237.23 147.26 236.62 147.57"/><polygon class="cls-2" points="250.41 157.43 250.41 157.43 250.7 156.48 250.41 157.43"/><polygon class="cls-2" points="233.24 145.93 234.1 146.65 235.16 147.11 234.1 146.64 233.24 145.93"/><polygon class="cls-3" points="92.1 169.94 92.32 169.87 92.22 169.72 92.1 169.94"/><path class="cls-4" d="M144.61,69.87l0,.07S144.63,69.91,144.61,69.87Z"/><polygon class="cls-5" points="213.36 145.33 213.82 144.96 214.08 144.04 214.63 143.08 214.29 142.13 214.17 141.64 214.32 140.98 214.01 140.71 213.5 140.41 213.36 140 212.69 139.21 211.1 138.28 210.18 138.07 208.51 138.07 207.97 137.93 207.75 137.58 207.18 137.33 206.8 137.38 205.74 138.15 204.59 138.42 202.28 139.59 201.6 140.25 200.95 140.32 199.72 140.27 198.41 139.37 197.54 138.97 197.32 139.16 197.76 139.43 197.76 139.81 197.16 139.92 196.53 139.59 196.35 139.29 196.49 139.14 196.76 139.06 196.54 138.82 196.24 138.85 195.78 138.7 195.37 138.27 195.22 137.85 194.56 137.82 194.21 138.06 194.23 138.72 193.77 139.23 193.66 139.83 194.1 139.97 194.56 140.63 193.96 141.09 193.79 141.68 193.82 142.09 194.06 142.45 194.59 142.39 195.24 142.5 195.94 142.38 196.29 142.12 196.62 142.47 196.57 142.75 197 142.88 198.37 143.06 198.55 144.03 199.03 145 199.63 145.36 200.26 145.33 200.49 144.88 200.23 144.6 200.47 144.19 200.98 144.27 201.21 144.6 201.07 145 201.27 145.77 201.13 146.31 201.38 146.74 202.44 146.91 202.89 146.19 203.41 145.65 204.09 145.77 204.48 145.65 204.53 144.88 203.94 144.36 203.31 143.91 203.03 143.29 203.15 142.88 203.78 142.54 204.97 142.28 206.03 141.31 205.99 140.96 205.77 140.79 205.85 140.06 206.98 139.45 207.9 139.37 208.37 139.63 209.06 140.3 209.56 140.4 210.22 141.27 210.48 141.97 210.87 142.28 211.1 142.09 211.59 141.52 212 141.51 212.18 142.02 211.87 142.35 211.48 142.4 210.85 143.35 210.56 143.64 210.87 144.62 211.72 145.79 212.5 146.5 212.99 145.36 213.36 145.33"/><polygon class="cls-5" points="193.79 141.68 193.96 141.09 194.56 140.63 194.1 139.97 193.66 139.83 193.77 139.23 194.23 138.72 194.21 138.06 194.56 137.82 195.22 137.85 195.15 137.67 194.61 137.27 194.01 137.09 193.6 136.58 193.37 135.97 192.6 135.2 192.14 134.46 192.03 133.65 191.77 132.98 191.41 133.06 191.3 133.42 190.51 133.42 190.69 133.13 190.28 133.13 189.9 133.35 189.12 132.64 189.12 132.34 188.62 132.18 188.22 131.61 187.18 131.66 186.5 131.78 184.46 131.17 183.18 131.36 183.18 131.58 182.91 131.69 183 131.75 182.78 132.6 182.54 132.82 182.76 133 183.32 133.13 183.49 133.9 182.84 134.28 182.48 135.15 182.65 135.89 183.65 136.75 184.66 136.79 185.26 137.17 185.62 137.79 185.97 137.79 186.4 137.03 186.21 136.37 185.21 135.64 184.96 135.24 185.29 134.96 185.94 135.48 186.65 135.83 186.7 136.46 187.44 136.98 187.69 137.74 188.55 138.23 189.21 138.83 189.69 139.13 190.51 140.08 190.65 140.44 190.16 141.06 190.16 141.57 190.49 142.09 191.39 142.43 191.99 142.8 192.28 142.64 192.37 142.01 192.01 141.55 191.36 141.23 191.36 141.09 191.63 140.9 192.04 141.19 192.69 141.98 192.67 142.67 192.93 142.82 193.13 142.94 193.4 143.24 193.87 143.27 194 142.89 193.96 142.46 194.06 142.45 193.82 142.09 193.79 141.68"/><path class="cls-6" d="M183.18,131.36l1.28-.19,2,.6.68-.11,1,0,.4.57.49.16v.3l.79.71.38-.22h.41l0-.07.36-.22-.11-.57-.41-.5-.19-.78.46-.9.25-.6,0-.79-.21.43-.11.36-.38.22v-.55l.19-.6.35-.82-.11-.48,0-.52.43-1.12.33.09-.13.3s0,.46,0,.59v.79l.21,0,.3-.51.17-1.46V123.7l.14-.37-.29-.43-.25-.12,0-.38.26-.27.23,0,.14.23.23-.94.61-.78.29-.51.07-.38-.37-.26,0-.32.22-.49-.11-.63.06-1,.22-.41.22-.24-.43.07-.53.06-.15-.3h-.43l-.32.18-.15.5-.51.24-.66.47-.63.06-.16.46-.49-.14-.68.11-.14-.32-.52-.41-.29,0-.17.68-.7,0-.61.92-.05.41-.35.19-.77.74-.79.3-.21.4-.52-.18-.38.1-.44-.4-.9-.17-1.25.68-1.17.14.08.71v.55l-.11,1-.27.54-.92.09-.64.11,0,.41-.3,0-.68-.23-.14.23,1.36,1.66.66.44v.47l1.09,1,.95,1.3,1.74,1.91.46.06.28.18.26-.11Z"/><polygon class="cls-7" points="169.37 122.64 169.69 122.63 169.37 122.64 169.37 122.64"/><polygon class="cls-5" points="179.09 124.03 179.36 123.49 179.47 122.52 179.47 121.97 179.39 121.26 180.56 121.12 181.81 120.44 182.71 120.61 183.15 121.01 183.53 120.91 184.05 121.09 184.26 120.69 185.05 120.39 185.82 119.65 186.17 119.46 186.22 119.05 186.82 118.13 187.53 118.1 187.7 117.42 187.99 117.4 188.51 117.81 188.65 118.13 189.33 118.02 189.82 118.16 189.98 117.69 190.61 117.64 191.27 117.17 191.78 116.93 191.93 116.43 192.25 116.25 192.68 116.25 192.82 116.55 193.36 116.49 193.79 116.42 194.03 116.17 193.81 115.8 192.94 115.08 192.12 114.73 192.07 114.87 192.4 115.49 191.58 115.46 190.6 115.36 190.21 115.05 189.51 114.97 188.88 114.97 189.04 114.67 189.54 114.53 189.48 114.19 189.81 114.1 190.41 114.24 191.41 114.53 191.55 114.43 190.87 113.89 189.95 113.37 189.29 113.31 188.66 113.45 188.25 113.26 188.09 113.72 187.6 113.37 185.94 113.2 184.33 113.13 183.46 112.39 182.67 112.01 182.51 112.47 182.81 112.69 182.21 112.93 181.83 113.2 181.2 112.99 179.95 113.31 178.34 113.18 176.11 113.23 175.13 113.78 174.67 113.4 174.54 113.72 174.05 114.08 173.81 114.73 172.74 115.35 172.18 115.32 171.19 116.33 170.59 116.96 170.79 117.61 170.32 118.62 169.94 118.9 170.23 118.69 170.86 118.82 170.99 119.01 171.41 119.16 171.76 119.57 172.49 119.46 173.25 119.63 173.72 120.22 173.83 120.67 174.3 120.98 174.45 120.64 174.62 120.21 175.26 120.15 175.63 120.28 176.13 120.45 176.13 121.07 175.96 121.77 176.05 122.06 175.85 122.63 175.95 122.98 175.97 122.95 176.38 123.17 176.58 123.44 176.9 123.42 177.07 123.17 177.37 123.33 177.37 123.8 177.53 124.2 177.53 124.23 178.16 124.12 179.09 124.03"/><polygon class="cls-1" points="176.05 122.06 175.96 121.77 176.13 121.07 176.13 120.45 175.63 120.28 175.26 120.15 174.62 120.21 174.45 120.64 174.3 120.98 173.83 120.67 173.72 120.22 173.25 119.63 172.49 119.46 171.76 119.57 171.41 119.16 170.99 119.01 170.86 118.82 170.23 118.69 169.94 118.9 169.29 119.38 169.29 119.5 169.29 119.79 168.63 119.98 167.71 120.2 167 120.96 166.97 121.34 166.7 121.77 167.04 121.89 167.78 121.89 168.38 122.46 169.25 122.65 169.37 122.64 169.69 122.63 170.96 123.2 172.16 123.85 172.32 123.53 171.78 123.22 172.05 123.06 172.73 123.09 173.31 123.85 173.72 124.2 175.43 124.23 175.92 123.55 175.73 123.2 175.95 122.98 175.95 122.98 175.85 122.63 176.05 122.06"/><polygon class="cls-6" points="173.51 103.2 173.35 103.51 173.2 104.07 172.72 104.72 172.68 104.88 172.4 104.95 172.25 105.15 172.08 105.03 172.05 104.74 171.5 104.72 171.1 104.99 171.04 105.54 171.04 105.54 171.05 105.56 170.94 112.58 171.49 112.61 171.71 112.73 172.12 112.7 172.11 112.69 172.41 112.06 173.12 111.32 173.53 111.68 174.59 110.21 174.97 109.18 175 107.92 174.59 107.51 174.75 106.39 175.16 105.72 175.26 103.87 175.37 103.45 175.29 103.05 174.8 103.05 174.42 103.4 174.24 103.06 173.97 103.04 173.51 103.2"/><polygon class="cls-6" points="167 120.96 167.71 120.2 168.63 119.98 169.29 119.79 169.29 119.5 169.29 119.38 170.32 118.62 170.79 117.61 170.59 116.96 171.19 116.33 172.18 115.32 172.74 115.35 173.81 114.73 174.05 114.08 174.54 113.72 174.67 113.4 174.37 113.15 173.69 113.07 173.5 113.53 172.9 113.13 172.35 113.13 172.12 112.7 171.71 112.73 171.49 112.61 170.94 112.58 171.05 105.56 171.04 105.54 164.47 105.44 164.33 107.42 162.74 107.56 163.31 108.02 163.51 108.41 164.11 109.16 164.71 109.56 165.13 109.56 165.42 110.06 165.5 110.61 165.76 110.9 166.4 110.94 166.81 111.17 166.82 111.66 166.44 112.1 161.61 112.13 159.35 115.71 159.42 116.31 159.48 116.51 159.42 116.89 159.58 117.19 159.68 117.29 159.64 117.62 159.3 117.88 159.15 118.29 159.03 118.39 159.64 119.14 160.1 119.9 160.67 119.95 161.19 120.58 163.17 121.35 164.35 121.37 165.24 121.26 166.7 121.77 166.97 121.34 167 120.96"/><polygon class="cls-6" points="93.05 73.67 93.25 73.99 93.38 74.76 93.79 74.48 93.68 73.94 93.25 73.34 93.05 73.67"/><polygon class="cls-6" points="142.8 74.77 142.54 74.8 142.44 75.3 142.68 75.21 142.8 74.77"/><polygon class="cls-6" points="142.19 77.23 142.17 76.65 141.84 77.89 142.19 77.23"/><polygon class="cls-6" points="142.29 76.22 142.38 76.34 142.58 75.7 142.37 75.7 142.29 76.22"/><polygon class="cls-5" points="159.3 117.88 159.64 117.62 159.68 117.29 159.58 117.19 159.42 116.89 159.48 116.51 159.42 116.31 159.35 115.71 161.61 112.13 166.44 112.1 166.82 111.66 166.81 111.17 166.4 110.94 165.76 110.9 165.5 110.61 165.42 110.06 165.13 109.56 164.71 109.56 164.11 109.16 163.51 108.41 163.31 108.02 162.74 107.56 164.33 107.42 164.47 105.44 171.04 105.54 171.1 104.99 171.5 104.72 172.05 104.74 172.08 105.03 172.25 105.15 172.4 104.95 172.68 104.88 172.72 104.72 173.2 104.07 173.35 103.51 173.51 103.2 173.97 103.04 174.24 103.06 174.23 103.05 174.89 102.48 175.7 101.52 176.14 101.39 176.06 102.15 175.7 102.51 175.73 102.72 176.58 103.23 176.88 103.94 177.04 103.78 177.74 102.56 178.34 100.19 178.73 99.56 178.37 99.61 177.99 100 177.66 99.83 177.66 99.54 178.5 98.63 178.64 98.09 178.01 98.09 177.53 97.68 177.77 97.41 178.5 96.94 178.59 95.94 178.92 95.39 180.58 93.9 181.42 92.48 182.02 91.52 181.96 90.7 180.86 89.31 180.15 89.36 180.31 89.8 179.88 89.96 178.13 89.53 176.66 89.58 176.72 89.96 175.79 90.39 175.46 90.07 174.53 90.18 173.99 90.94 170.77 90.89 168.32 91.49 168.32 92.03 168.92 92.09 167.5 93.67 167.39 96.01 167.5 96.29 166.13 97.76 166.13 99.07 165.41 99.94 164.84 100.08 163.15 100.98 163.28 101.11 164.02 100.62 163.83 101.28 163.8 102.36 163.06 103.23 162.63 103.26 162.47 103.67 162.03 103.23 161.16 102.86 161.35 102.39 162.08 102.01 161.03 101.71 160.7 102.15 159.88 101.9 158.87 101.93 158.19 102.51 157.32 102.53 155.99 102.64 155.77 102.97 154.19 103.87 153.75 103.87 153.43 103.48 152.15 103.75 151.24 104.17 150.96 103.22 150.09 102.03 148.99 101.56 148.75 101.28 147.71 101.25 147.35 101.33 146.85 100.8 145.28 98.94 145.07 98.33 145.13 97.75 144.44 96.72 144.09 95.88 142.02 93.65 141.85 92.92 141.42 92.26 141.69 91.75 141.5 91.22 141.06 89.67 140.49 89.16 140.6 88.34 141.45 89.43 141.55 90.77 141.8 90.55 141.77 89.43 140.79 87.88 140.9 87.06 140.66 85.62 140.47 85.02 141.06 84.23 141.26 82.44 141.06 81.26 141.47 79.38 141.42 78.84 141.69 78.32 141.45 77.99 141.45 77.1 141.83 76.71 142.07 75.65 142.23 75.3 141.75 74.92 142.21 74.35 142.21 73.28 142.86 73.34 142.75 74.01 142.62 74.4 143.05 74.35 143.16 73.69 143.74 72.87 143.95 72.03 144.25 71.7 144.36 70.72 144.47 70.34 143.95 70.78 143.74 71.86 143.08 72.3 143.26 71.76 142.94 71.59 142.7 71.13 142.02 70.97 141.31 70.61 140.07 70.19 139.45 69.59 138.97 69.32 138.49 69.39 138.05 69.22 137.96 69.12 137.64 68.74 137.68 67.76 136.92 65.55 136.85 65.32 136.86 65.12 136.94 64.42 137 63.75 136.37 63.09 136.01 62.47 135.84 61.73 135.26 61.42 135.09 60.94 134.78 60.73 134.28 59.35 134.09 58.83 133.69 58.63 133.63 57.74 133.53 57.16 133.33 56.84 133.04 56.05 132.46 55.14 131.72 54.53 131.39 53.97 130.89 53.72 130.41 53.8 130.24 53.58 129.96 53.45 129.24 53.49 128.59 53.4 127.91 53.4 127.7 53.85 127.4 53.9 127.32 53.79 127.04 53.72 126.61 53.88 126.21 54.27 125.67 55.29 125.34 55.71 125.41 55.91 125.33 56.23 124.96 56.33 124.42 56.75 124.34 57 123.99 57.14 123.67 57.08 123.44 56.82 122.68 56.44 122.04 56.23 121.94 55.97 121.17 55.58 120.74 55.57 120.49 55.31 120.44 55.07 120.3 54.8 119.94 54.66 119.7 54.67 119.39 54.36 119.16 54.36 119.19 54.16 119.02 53.62 118.5 53.01 117.85 52.23 117.85 51.96 118.28 51.85 118.5 51.69 118.47 51.11 118.04 50.7 117.91 50.42 117.69 50.37 117.44 50.06 117.35 49.22 117.02 48.68 116.5 48.34 116.03 48.2 116.22 47.91 116.26 47.57 115.69 47.09 115.1 46.88 115.22 46.51 114.89 46.01 114.49 45.99 114.42 45.64 114.09 45.25 113.49 44.39 112.78 43.95 106.67 43.76 106.59 45.14 95.78 44.82 82.93 38.94 83.06 38.63 82.88 38.3 73.82 38.46 73.94 39.38 74.46 41.31 74.89 42.13 75.3 42.67 75 42.9 74.89 43.49 75.14 44.2 76.14 45.42 76.12 45.83 75.87 46.08 76.04 46.54 76.83 47.25 76.93 47.98 76.69 48.34 76.64 49.1 77.1 49.51 77.31 49.94 77.34 51.23 77.7 52.26 78.35 52.89 78.79 52.86 79.85 53.92 80.39 54.68 80.56 55.28 81.48 56.21 81.86 57.35 82.19 57.49 82.68 58.3 82.24 58.87 82.22 59.28 82.49 59.72 82.3 60.32 81.86 60.13 81.48 60.54 81.56 60.73 82.19 60.84 82.08 61.3 81.81 61.68 81.29 61.36 80.36 61.19 79.79 60.98 78.81 61.05 78.62 61.27 79.39 62.28 80.07 62.58 80.12 63.31 80.5 63.99 81.15 64.22 82.03 64.62 82.03 65 82.52 64.98 83 65.17 82.9 65.44 83.17 65.98 83.66 65.76 84.15 65.74 84.81 64.98 85.1 65.06 84.86 65.69 85.05 66.88 86.36 68.13 86.9 68.38 87.28 68.27 87.66 68.84 88.13 70.29 88.24 71.84 87.99 73.06 87.36 74.13 87.47 74.72 88.21 75.32 88.54 75.25 88.72 75.76 89.46 75.92 89.81 76.66 91.42 78.4 91.99 78.65 92.27 79.17 92.84 79.84 93.63 79.93 93.98 80.42 94.06 81.42 94.5 81.78 94.55 82.35 94.88 83.14 95.35 83.28 96.48 82.76 97.17 81.73 97.22 80.77 96.76 80.47 96.54 79.8 96.19 79.44 95.97 78.73 95.4 78.4 95.15 77.91 94.77 77.42 94.42 77.23 94.2 77.39 94.23 77.91 93.9 78.04 93.79 77.61 93.22 77.15 92.56 76.36 92.48 75.9 92.87 75.12 92.84 74.33 92.27 73.54 92.43 73.02 92.42 72.55 92.04 72.13 92.08 71.59 91.64 71.1 91.64 70.37 91.42 70.02 91.34 69.06 91.5 68.52 91.29 67.1 90.82 66.34 90.6 65.82 90.33 65.76 90.3 66.06 90.33 66.5 90.06 66.74 89.38 65.71 89.33 65.22 89.57 64.68 89.35 64.3 89.03 64.27 88.81 62.74 88.18 61.73 87.88 61.63 87.17 60.98 87.15 60.08 87.23 59.28 86.6 58.3 86.11 58.2 85.81 57.87 85.73 57.05 85.24 56.53 84.61 56.23 84.42 55.56 84.56 55.06 84.34 54.05 83.31 53.35 82.95 52.81 82.54 52.78 82.57 52.04 82.06 50.95 81.64 50.52 81.97 49.89 81.86 47.25 81.67 45.64 82 44.8 82.35 43.49 82.22 42.78 81.94 41.91 82.43 42.78 83.44 43.25 84.13 44.31 84.56 44.69 85.19 44.58 85.54 44.31 86.17 44.91 86.39 45.34 87.12 45.37 87.91 45.8 87.91 46.19 87.39 46.79 87.44 47.44 87.83 48.34 88.02 49.65 88.34 50.24 88.45 51.14 88.29 51.63 88.56 52.29 89.49 53.59 89.44 53.98 89.22 54.33 89.46 54.84 89.76 54.84 90.03 55.25 90.44 56.48 90.96 56.73 91.18 57.33 91.26 58.2 91.56 58.52 92.05 58.66 92.45 59.53 92.68 60.19 93.17 60.59 93.33 60.95 93.81 60.98 94.09 61.19 94.61 60.98 95.02 61.3 94.99 62.17 94.69 62.64 94.83 63.67 96.13 64.84 96.6 64.78 97.06 64.95 96.9 65.63 97.22 66.26 97.87 66.42 98.47 66.34 99.13 67.15 99.23 67.73 99.75 68 100 67.76 100.19 68 100.3 68.49 100 68.84 99.62 68.43 99.13 68.6 98.47 69.31 98.1 70.37 98.2 71.13 98.83 71.57 99.51 71.62 99.94 72 101.44 73.17 102.32 73.39 102.78 73.39 102.96 73.83 103.24 74.53 103.54 75 103.24 75.65 102.78 75.84 102.83 76.11 103.46 76.47 104.57 76.93 104.63 77.39 104.98 77.64 105.99 78.51 107.13 80.01 107.98 81.56 109.2 82.81 109.23 83.57 110.62 85.31 110.76 86.05 110.48 86.77 110.76 87.28 111.17 88.37 111.98 90.44 112.03 91.28 111.63 91.97 110.76 92.72 110.64 93.16 111.03 93.21 111.46 93.63 111.13 94.01 110.27 93.98 109.8 94.25 109.8 94.61 110.32 95.94 110.81 96.43 110.81 96.98 111.52 97.9 111.79 98.82 112.14 99.13 112.72 99.13 112.94 99.56 114.13 99.86 114.95 99.7 115.41 99.78 115.06 100.24 115.06 100.57 115.98 100.89 116.94 101.79 117.59 102.83 118.14 103.67 118.89 103.96 119.21 103.85 119.96 104.16 120.43 104.2 121.9 104.76 122.47 104.81 122.66 104.52 123.08 104.48 123.42 104.92 125.27 106.72 125.76 106.81 126.85 107.92 128.49 108.58 130.36 108.84 131.26 109.31 131.72 110.07 132.78 110.15 133.76 110.62 134.31 110.4 134.53 110.56 135.05 111.41 136 111.84 136.63 111.9 136.93 111.82 137.63 112.25 139.02 112.8 140.33 112.8 141.33 113.34 143.21 114.02 143.98 113.97 145.91 113.15 146.73 113.1 147.76 112.41 148.53 112.28 149.48 112.2 149.86 112.25 149.86 112.03 149.12 111.93 148.5 111.93 148.53 111.57 149.37 111.08 149.64 111.22 149.64 111.63 150.1 111.38 150.59 111.38 150.59 111.71 150.21 111.73 150.05 111.9 150.32 112.03 150.87 112.01 151.55 112.25 152.69 112.99 153.21 113.45 153.21 113.23 152.34 112.36 151.11 111.82 151.06 111.6 151.33 111.57 151.47 111.71 152.2 111.84 152.85 112.41 153.51 113.23 153.51 113.56 153.83 114 156.45 116.17 157.27 116.42 157.38 116.85 158.44 117.67 159.03 118.39 159.15 118.29 159.3 117.88"/><polygon class="cls-6" points="94.04 76.9 94.36 76.93 94.47 76.53 94.09 76.41 94.04 76.9"/><path class="cls-1" d="M316.11,165.49l-.11.27.3,1,.38.56.4.06.09-.52-.55-1Z"/><polygon class="cls-1" points="315.49 175.06 315.22 175.15 314.88 175.1 314.52 175.26 313.81 175.98 313.38 177.2 313.67 177.13 313.79 176.85 314.62 176.05 315.02 176.01 315.66 175.34 315.49 175.06"/><polygon class="cls-1" points="320.43 175.3 320.71 174.86 320.28 174.55 319.77 174.57 319.6 174.9 319.03 175.15 319.59 175.35 320.43 175.3"/><polygon class="cls-1" points="314.35 176.84 314.06 177.22 314.28 177.28 314.84 177.17 315.05 176.69 314.87 176.52 314.35 176.84"/><polygon class="cls-1" points="318.18 174.47 318.47 174.64 318.96 174.41 319.11 173.93 318.69 173.59 317.62 173.87 317.06 173.92 316.91 174.25 317.25 174.44 318.18 174.47"/><polygon class="cls-1" points="317.05 173.32 317.42 172.74 317.84 172.61 318.15 172.07 317.81 172.02 317.31 172.4 316.92 172.59 316.5 173.07 316.64 173.74 317.05 173.32"/><path class="cls-5" d="M375.52,203.37l-.11-1.87-.43-.27-.17-.93-1.31-2.89v-1l-.21-1.19-2.46-1.1-1.42.05-1,.44-.71-1-.82-.16-.82-.93-1.09-.54-.76-.11-1.69-1.8-1.37-1.91-.65-.17-.93-.86-.81.05-2.3-1.63h-1l-1.14-.49-.71.38h-1.09l-.65-.33-.71.33-.33.49-.44-.44-1-.76-.17.33-.43-.39-.17.49v.39l-.6-.49-.1-.39-.46-.13.14.39-.22.14-1.12-.43-.36.07-.95-.18-2.07-1-.79.06,0,.23.16.42-.17.21-.44-.23-.19.11-.12.31-.73.35-.26.38-.1.89-.39-.66-.21-.57-.38.16.05.71-.62,1.2v1l-.22-1,.24-.95-.13-.84.38-1.23.33-.3-.28-.24-.6,0,.79-.9-1-1.12-.6-1-.57.05-.85-.13-.49.63-.49.24-.24-.58-.36-.21-.16-.55-.44-.35-.6.06-.29-.39-.52-.19-.3.38v-.32l-.41-.25-.27-.54-.46.19-.85-.25-1.12-.65-.32-.05-.19.32-.68-.46-.49,0-.11.47-.33,0-.19-.51-.87,0-.74.41-.41.73.06.44-.82.82-1.06.63-1.36.78-.66.82-.4,1.06-.17,1-.35.54-.62.65,0,.45.13.78-.14,1.42-.25-.86-.51-.84,0-.63.52-.66.61-.5-.09-1,.31-.88-.07-.46h-.45l-.88.31-1-.29-.85.05-.68.18-.48-.41.55.08.64-.49.67-.15,1.13.21.64-.15.6-.76h.28l.35.28.38-.13.66-.38,1.1-.38v-.88l1-1.14v-.82l.38-.54.06-.66-1-.22-.82-.65h-.77l-1.09.65-.93.06-1.31-.55-1.41-.1-1,1.09.06.43.33.26.22.36-.49.06-.3.16-.27.65-.2-.57-.35-.13-.82.32-.87,1.23-1.17,1.34.88-1.23,0-.79.19-.44.08-.54h-.38l-.76.62-.39.88-.37,1-.63.41.59-1.13.11-.91,1.34-1.66.33-1.12.49-.67.73-.41.79-.57.57-.25.71-1.06,1.77-1.8.11-.44.35-.27-.38-.49.14-.52.24-.21,0-.74-.71-.52-.79.06-.24.27-.36-.6-.49-1.42-.84-2.09-.76-1.09-.55-1.44,0-.8-.19-.78-.31-.3-.13-.74-.46-.89-.19.1.06.6-.3.46-.88.58h0l0,0-.29.45-.93,1.14-1,1.27v.69l-.72,1.57-.62,1-.47.93-.65.11-.39.28-.15.61-.67.5-.45-.16,0-1-.27-.13-.1-.31-.42,0-.53.2-.41.45-.65-.11-.52-.58v-.37l-.2-.18-.25-.61-.13-.36-.51-.11-.74-.7-1,0-.72.33-1.57.08-.84-.23-.74.49-.12.69.7.68.17.44.36.82-.14.29-.64,0-1-.27-.23-.18H294l-.07,0h-1.2l-.68.11-.3-.33-1.12.05-.79.34-.43,1.2-1.56-.06-.79.25-.11.35-.51.62-.87.09-.11-.24-.52.13-.47.6-.59-.24-1.5-1.29-.55-.68,0-.54-.82-.82-.68-.71-.08-.76.16-.52-.19-.37.11-.69.27-.55-.05-.81.73-1.28.25-1,.68-.84,0-.41-.71.06-.35-.55-.25-.54-.79.05-.65-.32.33-.47.46-.73v-1l-.63-.79-.84-.08-.41.27-.3-.33-.37-.05.07.79-.35.9-2,1.39-1.23.11-1.69.7h0l-.62-.3-1.07.11-1.22,1.09-1.2.41-.41-.28-1.69.22-1.3.09-1.18-.66-1.16-.18-1.1-.34.49.94.8.29.81.77.28.7-1.07,1.63.19.36.22.41-.25,1.26,1.75.57,1.2-.14,1.2.24.05.77-.87.4-1.77.35-.32.34-.31.35-.35,1-1.94,1-.62.73-1.3.85-.89,1.07-1.54.08-.88-.12-1.5-1.16-1.45-1-1,.12,0-1-.15-.83-.63-.77-.2-.57-1,.27-.74.81-.49.09-.41-.39h-.73l-.46.52-4.28,0-.24,1.22.35.9,1.45.39.54,1-.41.47.44.46-.19.62-.9-.59-2.54.87.11,2.07.66.84,1.41,1.09.93,1.63-.05,1.29,0,.56L242.76,189l-.63,2.09.09.37-.33.55-.82-.22.09-.25-.85-.54-.3.08h-.74L239,191l-.27.6-2.59.85-1.94.41-.48.49-.44.14-.79.79-.9.4-.68.44.11,1-.38.57.16.6-1,1,.36,1.31.35.69-.62.59-.55-.11-1.06.69-.05.75-.38.42.24.51-.14.85-.3.7.27.63-.19.57,1,1,1.85,3-.95,1.2,2.34-.19,1.12.19.82,1.2.24,1.06,1.63.06,1.91.13,1.6-1.47,1.35-.77.38.41-.17.83-.28.29,0,1.35.2,2.22.05.89.46.45.75-.13.72-.2.81-.06.42-.06.38.18.11.05h2.39l1.1.05L249,217h.6l.81-.65h.93l1.09-.32.66-1.69,1.8-1.15,1.25-.22,1.2-.6h.82l.76.55.88-.55.44.38-.12.88.44,1.36-.6,1.09.49,1.75-.33.76.66,1.42.87.38.27,1.15.88.43,1.2.77.81.76.33-.38,1.59-.38L268,224l1-.27,1.36,1.47.6-.05,1.63.55,1,.38.22,1.09.77.22,1,.54,2.18-.22,1.53.88.32.65-.21,1.75.32,1.42-.43.87,1.41,2.4-.11,1.74,6.66.11.33,2.4-.11,1.53,2,.44,2,3.49.1,1.85L289.67,251l.11.55-.51.69.34.4-.22.82.93.7.06,1.15.76,1.15-.38,2.29.22.92-.28.82.28.82,1.42-.11.59.28,1.75-.12,1.09.39,1.75-.71.92.65.71.22.28.87.95,4.11.65,1.44.69.19,1.49-.82.85.33.57.52.54.11-.36.61-.1,3.56-.15.41-.11.13v.48l-.1.39,0,.46.65-.43,1.75.24,0,.77.71,1.6-.06,1.28.17,1.48.13,1.36-.21.54-.77,0-.92.49-.14.3-.55.46-.24-.13-1.55,1-.3.48-.6.17-1.42,1.17-.46.16-.05.93-.52.16-.46-.08-1.2,1.47-.22.57,0,.84-.55.17-.3.46-.76,1.39-.54.57-.63,1v.36l-.71.49-.1.34.57,0,.4.22,1.91-.58.79.52.87,1.2.76.32.47,1,.89,1.47h.44l.73-.8.39.06.87,1.42,1,.47.9.18.88.87.05,1,.73-.16,1.47.65.87,1.09.93,1.38.85.61-.17,1.06-.71,1,.36,1.15.13.28.11.18.44.59.21.17,1.43-1.18.49-1.14.63-2.64.57-1.8.24-.36-.32-.41-.55-.89.28-.76.54-.28,0-.48.62-.72v-.54l.38.3.52.08.63-.74.08-.75.24-.25.06-.87.27-.36h.38l.28-.74-.2-.54-.4-.43.05-1.15-.32-.3.37.11.44.9.9,1h.35l.38-.23.25.25.08.66-.3.07-.35,1.31-.88,1.51-.78,0-.11.95-.27.51-.25-.07-.79.43-.57.49-.06.41-.62.11-.3.3,0,.4.73.23,2.4-1.88,1.22-1.39,1.77-3,.68-1.52.68-2,1.72-3.27,1.69-2,.27-.61-.17-.21.09-.52.35-.11.27-.84.5-.3-.17-.68.17-.49-.17-.22-.3-.25.06-.76-.74-1v-.46l.14-.46-.14-.5-.24-1.09-.39-1.14.3-.27,1-.2-.25-.62-.46-.27.9-.22,0-.74-.92-.41.76-.21.49-.71.38.3,1.2-1.12.7-.46,0-.38,1-.87,1.17-.77,1.55-1.77,1.36-.16.74-.71.82-.65h.76l.49.41.57.14,0-.55.57-1,1.61-1L341,265v-.3l-.38-.23-.52-.12-.24-.46.57-.14,1-.6.57.16.65,0,.46-.36.64,0,0,.3-.91.51-1,.2-.18.22.31.24,1.46-.54,1.76-.7-.15-.29.47-.39.43.06-.15.42s0,.63.11.66,1.1.16,1.1.16l.62-.33h1l1.25.13.77-.52v-.38l-.19-.19.11-.38,1.7-1.17,1.43-.5.74-.45.22-.47-.2-.29-.63-1.43.46-1,.54-.65,0-.73.34-.3.63-.44.14-.76-.19-.11,1.06-1.71,1.44-1.7,0-.76-.3-2.4-.24-.45.46-1.45.38-.57.09-.49,1.11-.9.16-.44-.29-1.39.59-1.69-.16-1.32.22-1-.06-.55.33-1.42-.38-5.13v-.94l.3-.72v-.68l-.33.35-.6-.43v-.44l.55-.84-.14-.85.14-.57.49-.13.11-.9-.52-.85-1-.46.28-.11.13-.33.19.42.6.35.54.19.22-.82.52,0,.22.46.38.19-.41.57-.54.41-.14.46.38,0,.73-.68,1-.52,1.28-2,.58-1.45.18-.87.5-.44.48-1.3.55-1.12,2-1.36.24-.66.6-.18.44-.71,1.69-1.53,1.49-2,.38-.54.93-2,.25-.9.46-.65v-.66l-.49-.73.19-.76Z"/><polygon class="cls-1" points="316 174.41 316.22 174.74 316.6 174.86 316.63 174.51 316.53 174.19 316.07 173.97 316 174.41"/><polygon class="cls-6" points="301.73 153.99 301.13 154.8 301.21 155.84 301.5 156.59 301.4 157.44 301.4 158.06 302.08 158.47 302.38 159.08 302.81 159.76 302.96 160.53 303.09 160.88 302.97 161.54 302.37 162.13 302.45 163.08 302.73 163.57 302.37 164.4 301.45 165.02 301.26 164.98 301.39 165.34 301.64 165.95 301.84 166.13 301.83 166.5 302.35 167.08 303 167.19 303.41 166.74 303.94 166.54 304.36 166.58 304.46 166.89 304.73 167.02 304.76 168.01 305.21 168.17 305.88 167.67 306.03 167.06 306.42 166.78 307.07 166.66 307.54 165.74 308.16 164.75 308.88 163.18 308.89 162.49 309.87 161.22 310.8 160.08 311.09 159.63 311.13 159.6 311.77 158.74 311.72 157.78 311.04 157.01 310.71 157.37 310.25 156.97 310.17 156.36 308.83 154.98 308.48 154.84 307.61 154 305.49 153.45 304.53 152.88 303.42 152.77 302.74 153.26 302.06 153.64 302.06 153.64 302.03 153.66 301.73 153.99"/><polygon class="cls-6" points="291.14 153.37 291.17 153.9 290.64 154.51 289.95 154.86 289.03 154.9 288.54 155.82 288.51 156.63 287.86 158.22 287.94 158.7 288.62 159.05 289.07 159.57 289.18 159.95 289.62 160.53 289.65 161.03 290.09 161.41 290.58 161.44 290.87 161.68 291.01 162.23 291.31 163.38 291.29 164.13 291.69 164.43 292.3 165.15 292.4 165.8 293.16 166.1 293.16 166.4 293.38 166.89 293.91 167.27 293.98 167.29 294.29 167.29 294.52 167.47 295.48 167.74 296.12 167.72 296.26 167.43 295.9 166.6 295.73 166.17 295.03 165.49 295.15 164.8 295.89 164.31 296.73 164.53 298.3 164.46 299.02 164.13 300.01 164.17 300.75 164.87 301.26 164.98 301.45 165.02 302.37 164.4 302.73 163.57 302.45 163.08 302.37 162.13 302.97 161.54 303.09 160.88 302.96 160.53 302.81 159.76 302.38 159.08 302.08 158.47 301.4 158.06 301.4 157.44 301.5 156.59 301.21 155.84 301.13 154.8 301.73 153.99 302.03 153.66 302.06 153.64 302.79 152.75 302.74 152.23 301.95 151.87 300.64 151.65 299.14 151.09 298.65 151.15 297.97 151.44 296.8 151.33 295.33 151.63 294.11 151.27 292.44 151.3 291.49 151.65 291.33 152.52 291.33 152.6 291.14 153.37"/><polygon class="cls-1" points="279.5 143.48 278.71 144.09 278.13 144.02 277.1 145.25 277.4 145.77 277.67 146.58 278.68 146.64 279.31 147.13 279.31 148.03 278.08 148.57 277.43 148.33 276.91 148.6 276.31 148.33 275.8 148.93 275.63 150.07 274.87 150.78 275.22 151.73 276.2 153.09 277.62 154.27 277.63 154.35 278 154.4 278.3 154.73 278.71 154.46 279.55 154.54 280.18 155.33 280.18 156.34 279.72 157.07 279.39 157.54 280.04 157.86 280.83 157.81 281.08 158.35 281.43 158.9 282.14 158.84 282.17 159.25 281.49 160.09 281.24 161.13 280.51 162.41 280.56 163.22 280.29 163.77 280.18 164.46 280.37 164.83 280.21 165.35 280.29 166.11 280.97 166.82 281.79 167.64 281.81 168.19 282.36 168.86 283.86 170.15 284.45 170.39 284.92 169.79 285.44 169.66 285.55 169.9 286.42 169.81 286.93 169.19 287.04 168.84 287.83 168.59 289.38 168.65 289.82 167.45 290.61 167.12 291.73 167.06 292.03 167.4 292.71 167.28 293.93 167.28 293.91 167.27 293.38 166.89 293.16 166.4 293.16 166.1 292.4 165.8 292.3 165.15 291.69 164.43 291.29 164.13 291.31 163.38 291.01 162.23 290.87 161.68 290.58 161.44 290.09 161.41 289.65 161.03 289.62 160.53 289.18 159.95 289.07 159.57 288.62 159.05 287.94 158.7 287.86 158.22 288.51 156.63 288.54 155.82 289.03 154.9 289.95 154.86 290.64 154.51 291.17 153.9 291.14 153.37 291.33 152.6 291.33 152.52 291.33 152.53 291.11 151.76 291.11 150.84 290.86 150.27 289.45 149.89 288.22 148.6 287.53 148.07 287.06 148.29 286.3 148.56 285.78 149.14 285.62 149.85 285.48 148.95 285.65 147.78 285.89 147.1 285.51 145.84 284.94 145.42 283.45 144.5 282.45 143.37 282.36 142.78 281.63 142.08 280.94 141.93 280.73 141.79 280.62 142.15 279.5 143.48"/><polygon class="cls-6" points="248.44 126.97 248.77 127.59 249.28 127.67 249.72 128.25 249.88 127.62 249.18 126.92 248.44 126.97"/><polygon class="cls-6" points="242.34 125.82 242.83 126.51 243.57 126.48 242.91 125.88 242.34 125.82"/><path class="cls-6" d="M264.86,132.36l.76.2.61-.73-.33-.5-1.12.84-.37-.48-.78.57a3.6,3.6,0,0,1,.4.28Z"/><polygon class="cls-6" points="237.5 128.71 235.56 129.45 234.43 131.2 234.07 131.64 233.42 131.8 232.82 132.67 232.22 133.19 231.03 134.91 230.8 135.67 231.05 136.32 230.94 137.57 230.37 138.8 230.29 139.18 230.78 139.12 231.43 139.15 232.93 141.89 233.59 142.89 233.78 143.61 233.4 144.43 233.46 144.95 233.2 145.38 233.24 145.93 234.1 146.64 235.16 147.11 235.83 147.19 236.62 147.57 237.23 147.26 237.23 147.26 237.23 147.26 238.21 147.29 239.12 147.56 239.39 147.33 240.48 147.14 241.69 147.37 242.37 147.65 245.22 150.47 246.25 150.25 246.53 150.48 246.82 150.38 247.59 150.61 248.08 150.88 248.79 150.48 249.54 150.47 250.58 150.57 250.77 150.36 251.43 150.33 252.04 150.65 252.27 152.11 251.97 152.72 251.97 153.38 251.72 153.84 250.82 154.11 250.4 154.64 250.62 155.99 250.7 156.48 250.41 157.43 250.44 158.63 250.85 159.22 250.88 159.66 251.69 161.68 250.47 163.9 250.58 164.45 250.99 164.58 251.36 164.31 251.52 164.48 251.68 165.09 252.05 165.31 252.45 166.06 252.25 166.49 252.68 167.44 253.44 169.36 253.5 170.08 253.45 170.08 254.9 171.08 256.4 172.24 257.28 172.36 258.82 172.28 259.71 171.21 261.01 170.36 261.63 169.63 263.57 168.62 263.92 167.64 264.23 167.29 264.54 166.95 266.32 166.6 267.19 166.2 267.13 165.43 265.94 165.19 264.74 165.33 262.99 164.76 263.24 163.5 263.02 163.09 262.83 162.73 263.89 161.1 263.62 160.4 262.81 159.63 262.01 159.34 261.52 158.4 262.62 158.74 263.78 158.92 264.95 159.58 266.26 159.49 267.95 159.27 268.36 159.55 269.56 159.14 270.78 158.05 271.85 157.94 272.47 158.24 272.47 158.24 274.16 157.54 275.39 157.43 277.35 156.04 277.7 155.14 277.63 154.35 277.62 154.27 276.2 153.09 275.22 151.73 274.87 150.78 275.63 150.07 275.8 148.93 276.31 148.33 276.91 148.6 277.43 148.33 278.08 148.57 279.31 148.03 279.31 147.13 278.68 146.64 277.67 146.58 277.4 145.77 277.1 145.25 278.13 144.02 278.71 144.09 279.5 143.48 280.62 142.15 280.73 141.79 280.53 141.67 279.08 141.01 278.57 141 278.06 141.2 277.29 141.04 276.87 141.06 276.26 141.33 275.05 141.52 274.16 141.42 273.71 141.36 274.5 141.23 274.93 141.28 275.48 140.93 275.81 140.32 276.59 139.73 276.76 139.34 276.24 138.99 276.3 138.75 276.07 138.15 275.04 137.6 273.79 137.27 273.41 136.9 272.94 136.6 272.21 136.56 271.96 136.21 271.2 135.89 270.79 135.91 270.82 136.54 270.33 135.89 270.03 135.15 269.27 134.77 269.05 134.37 269.46 134.04 271.15 134.09 271.77 133.68 272.84 133.57 272.94 132.94 271.96 133.13 270.28 132.79 269.05 132.94 268.24 132.9 266.57 133.49 266 133.25 265.32 133.33 263.93 134.31 263.22 134.47 262.38 134.91 262.05 135.32 260.94 135.46 260.58 135.67 260.01 135.48 258.35 134.37 258.02 133.68 257.53 133.6 255.68 133.73 252.11 134.34 250.37 134.34 249.69 133.98 249.41 133.44 249.41 132.79 249.85 132.75 249.77 132 249.01 130.96 248.3 130.77 246.5 130.9 245.69 130.44 245.09 130.42 244.6 130.58 243.97 129.57 243.97 128.56 243.7 127.31 243.35 127.17 242.28 127.61 241.25 128.83 241.5 129.65 241.85 129.97 242.56 129.6 243.23 129.65 243.84 130.31 243.72 130.77 243.07 130.96 242.31 130.61 241.96 130.36 241.79 130.58 241.76 130.88 240.9 131.34 239.23 131.64 237.57 132.35 237.06 133 237.06 133.63 237.48 134.42 237.48 135.94 237.64 136.98 237.97 137.85 237.42 138.99 236.11 139.76 235.46 139.65 235.46 138.56 234.69 137.69 234.48 136.92 235.18 136.32 235.24 135.89 236.66 134.47 236.66 133.27 236.21 132.48 236.27 132.13 236.24 131.66 235.64 131.23 235.34 130.61 235.53 130.09 236.4 129.71 237.3 129.49 238.09 128.58 237.67 128.56 237.5 128.71"/><polygon class="cls-6" points="245.94 126.64 245.72 127.02 246.07 127.75 246.92 127.95 247.29 127.54 246.64 127.45 245.94 126.64"/><polygon class="cls-5" points="210.47 170.68 212.16 171.79 212.83 171.8 213.72 172.73 213.58 173.29 213.73 173.78 214.88 173.88 216.21 174.52 216.66 174.83 217.88 175.1 218.34 174.69 218.3 173.91 218.85 173.47 219.12 173.47 220.25 173.88 220.84 174.21 221.01 174.7 221.52 174.99 221.6 175.04 221.87 175.01 222.31 175.45 223.67 175.79 224.51 175.97 224.74 176.38 225.63 177.44 225.71 178.15 226.34 179.33 226.83 179.33 228.63 179.92 229.39 181.03 229.36 181.93 229.64 182.02 230.26 182.31 230.59 183.27 230.34 183.65 230.56 184.19 231.27 184.49 232.06 184.31 232.71 184.47 233.64 184.44 234.02 184.11 235.22 183.57 236.25 183.76 237.15 184.19 238.46 183.63 239.14 183.63 239.44 184.06 239.87 184.03 240.72 184.44 241.1 184.96 241.83 184.71 241.89 185.23 239.44 189.37 239.57 189.83 240.42 189.75 241.37 189.66 241.94 190.3 242.13 191.12 242.76 189.03 244.89 181.14 244.91 180.58 244.97 179.29 244.04 177.66 242.63 176.57 241.97 175.73 241.86 173.66 244.4 172.79 245.3 173.38 245.49 172.76 245.05 172.3 245.46 171.83 244.91 170.83 243.47 170.44 243.12 169.54 243.36 168.32 247.64 168.29 248.1 167.77 248.83 167.77 249.24 168.16 249.73 168.07 250.47 167.26 251.5 166.99 251.71 167.56 252.34 168.33 252.49 169.16 252.46 170.2 253.45 170.08 253.5 170.08 253.44 169.36 252.68 167.44 252.25 166.49 252.45 166.06 252.05 165.31 251.68 165.09 251.52 164.48 251.36 164.31 250.99 164.58 250.58 164.45 250.47 163.9 251.69 161.68 250.88 159.66 250.85 159.22 250.44 158.63 250.41 157.43 250.41 157.43 250.7 156.48 250.62 155.99 250.4 154.64 250.82 154.11 251.72 153.84 251.97 153.38 251.97 152.72 252.27 152.11 252.04 150.65 251.43 150.33 250.77 150.36 250.58 150.57 249.54 150.47 248.79 150.48 248.08 150.88 247.59 150.61 246.82 150.38 246.53 150.48 246.25 150.25 245.22 150.47 242.37 147.65 241.69 147.37 240.48 147.14 239.39 147.33 239.12 147.56 238.21 147.29 237.23 147.26 237.23 147.26 236.62 147.57 235.83 147.19 235.16 147.11 234.1 146.65 233.24 145.93 233.2 145.38 233.46 144.95 233.4 144.43 233.78 143.61 233.59 142.89 232.93 141.89 231.43 139.15 230.78 139.12 230.29 139.18 230.37 138.8 230.94 137.57 231.05 136.32 230.8 135.67 231.03 134.91 232.22 133.19 232.82 132.67 233.42 131.8 234.07 131.64 234.43 131.2 235.56 129.45 237.5 128.71 237.67 128.56 238.09 128.58 238.2 128.45 238.63 128.13 238.8 127.69 238.36 127.12 237 126.38 236.46 126.36 236.27 126.69 236.21 127.04 235.64 127.12 235.34 127.36 234.71 127.28 234.17 127.51 233.87 127.85 234.19 128.24 233.95 128.59 232.97 129.08 231.66 129.87 230.79 130.5 229.78 130.72 228.67 130.79 227.44 130.66 226.68 131.06 226.73 131.53 226.98 132.13 226.9 132.73 226.32 133.25 225.95 133.08 226.08 132.48 226 132.29 226.54 132.1 225.75 132.02 224.8 131.61 224.31 131.64 223.06 132.4 222.76 132.92 221.91 133.9 220.91 135.81 220.77 136.35 221.07 136.21 221.34 136.51 221.45 137.15 221.23 137.82 220.69 138.09 219.98 138.15 219.44 138.45 218.46 139.4 218.05 139.62 217.31 140.71 216.88 140.76 216.25 140.79 216.47 141.5 217.12 142.23 217.12 143.16 216.74 143.98 216.33 143.95 215.65 143.37 215.73 143.1 215.97 142.67 215.41 142.43 215.16 141.72 214.32 140.98 214.17 141.64 214.29 142.13 214.63 143.08 214.08 144.04 213.82 144.96 213.36 145.33 212.99 145.36 212.5 146.5 212.66 146.64 212.82 147.51 212.89 148.38 213.64 149.29 213.93 149.27 214.3 149.07 214.5 149.42 214.59 150.25 214.13 150.77 214.12 151.1 214.57 151.59 214.57 152.64 214.08 153.01 213.78 153.56 214.08 153.68 214.38 154.37 214.28 155.64 214.35 157.41 213.83 158.02 213.74 158.56 214.19 159.19 214.85 158.9 214.76 159.32 215.14 159.87 215.54 159.83 215.58 160.18 215.19 160.67 214.87 161.51 213.45 162.93 213.06 163.72 212 164.76 210.59 165.07 209.5 165.88 208.46 167.46 208.3 168.72 208.13 169.42 209.23 169.83 210.47 170.68"/><polygon class="cls-1" points="203.91 185.7 203.23 186.3 202.82 186.98 202.86 187.25 203.1 187.55 203.53 187.42 203.82 186.86 203.76 186.39 203.97 185.89 203.91 185.7"/><polygon class="cls-5" points="204.17 189.91 203.38 190.32 202.76 191.03 202.86 191.76 203.63 191.79 204.47 191.41 204.82 191.99 205.97 192.23 206.65 192.51 207.74 194.05 208.23 194.05 208.94 193.32 211.88 187.22 212.42 186.73 216.29 185.45 217.93 184.31 220.54 181.91 221.59 179.44 222.25 179.4 222.42 179.06 222.61 178.18 222.53 177.47 221.75 176 221.78 175.6 221.6 175.04 221.6 175.04 221.52 174.99 221.01 174.7 220.84 174.21 220.25 173.88 219.12 173.47 218.85 173.47 218.3 173.91 218.34 174.69 217.88 175.1 216.66 174.83 216.21 174.52 214.88 173.88 213.73 173.78 213.58 173.29 213.72 172.73 212.83 171.8 212.16 171.79 210.47 170.68 209.23 169.83 208.13 169.42 207.92 170.3 206.82 170.36 205.03 171.61 204.09 171.67 203.11 172.16 203.6 173.03 203.66 173.58 203.99 174.12 203.77 175.16 202.35 176.69 202.24 177.34 202.57 177.78 201.86 178.81 201.04 178.92 200.39 179.84 200.66 180.45 200.95 181.23 200.86 181.82 201 182.94 200.59 183.65 200.21 184.01 200.65 184.58 201.46 184.9 202.22 185.7 202.85 186.1 203.15 185.89 203.48 184.99 203.73 184.52 204.27 183.98 204.29 184.63 204.37 185.2 204.51 184.85 204.46 184.25 204.7 184.31 204.95 185.28 204.76 186.35 204.87 186.92 204.49 187.87 203.5 188.7 203.85 188.88 204.17 189.91"/><polygon class="cls-5" points="244.42 245.96 244.91 246.07 245.65 245.61 245.92 244.98 245.24 244.33 245.49 243.67 245.86 243.05 246.4 243.17 246.3 242.7 245.84 242.61 245.51 242.25 246.08 241.03 246.93 240.46 247.69 239.45 247.77 238.55 246.68 236.05 247.07 235.45 246.98 234.5 246.74 234 246.58 233.21 247.04 232.7 247.31 231.39 247.2 228.97 246.85 227.9 247.31 226.71 247.28 224.09 247.91 223.06 247.88 222.51 244.4 217.53 244.4 217.53 244.29 217.48 243.91 217.3 243.5 217.35 242.68 217.41 241.96 217.62 241.21 217.75 240.75 217.3 240.7 216.41 240.5 214.19 240.52 212.84 240.8 212.55 240.97 211.72 240.59 211.31 239.24 212.08 237.64 213.55 235.73 213.42 234.1 213.36 233.86 212.3 233.04 211.1 231.92 210.91 229.58 211.1 230.53 209.9 228.68 206.91 227.65 205.87 227.84 205.3 227.56 204.67 227.86 203.97 228 203.12 227.76 202.61 228.14 202.19 228.19 201.44 229.25 200.75 229.8 200.86 230.42 200.27 230.07 199.58 229.71 198.27 230.75 197.24 230.59 196.64 230.97 196.07 230.86 195.09 231.54 194.65 232.44 194.25 233.23 193.46 233.67 193.32 234.15 192.83 236.09 192.42 238.68 191.57 238.95 190.97 239.27 191.11 240.01 191.11 240.31 191.03 241.16 191.57 241.07 191.82 241.89 192.04 242.22 191.49 241.94 190.3 241.37 189.66 240.42 189.75 239.57 189.83 239.44 189.37 241.89 185.23 241.83 184.71 241.1 184.96 240.72 184.44 239.87 184.03 239.44 184.06 239.14 183.63 238.46 183.63 237.15 184.19 236.25 183.76 235.22 183.57 234.02 184.11 233.64 184.44 232.71 184.47 232.06 184.31 231.27 184.49 230.56 184.19 230.34 183.65 230.59 183.27 230.26 182.31 229.64 182.02 229.36 181.93 229.39 181.03 228.63 179.92 226.83 179.33 226.34 179.33 225.71 178.15 225.63 177.44 224.74 176.38 224.51 175.97 223.67 175.79 222.31 175.45 221.87 175.01 221.6 175.04 221.6 175.04 221.78 175.6 221.75 176 222.53 177.47 222.61 178.18 222.42 179.06 222.25 179.4 221.59 179.44 220.54 181.91 217.93 184.31 216.29 185.45 212.42 186.73 211.88 187.22 208.94 193.32 208.23 194.05 207.74 194.05 206.65 192.51 205.97 192.23 204.82 191.99 204.47 191.41 203.63 191.79 202.86 191.76 202.76 191.03 203.38 190.32 204.17 189.91 203.85 188.88 203.5 188.7 203.45 188.75 201.6 189.56 200.92 190.19 199.61 191.47 199.34 192.42 199.04 193.15 199.12 193.51 199.72 194 199.8 194.54 199.34 194.87 199.34 195.28 200.07 195.94 200.65 196.99 200.56 197.73 199.99 197.75 199.4 198.03 199.18 198.6 199.8 199.2 200.56 199.5 201.68 200.45 202.72 200.59 204.27 201.62 205.03 201.82 205.22 202.44 206.06 203.64 206.17 204.67 206.61 205.44 208.13 206.22 208.81 207.34 209.03 208.43 209.47 209.16 209.61 210.39 210.12 211.24 210.72 211.6 211.4 212.82 211.54 213.72 211.32 214.01 211.92 215.32 213.12 216.82 213.58 217.61 213.39 218.23 213.52 218.75 214.01 218.92 215.29 220.06 215.62 220.74 215.76 221.8 216.12 222.27 217.09 222.62 217.28 223.52 218.37 225.26 218.64 226.13 219.9 227.9 219.93 228.61 219.6 228.75 219.24 228.5 219.22 228.89 219.35 229.51 219.35 230.08 219.79 230 220.28 230.33 220.39 230.82 220.23 231.2 221.48 232.07 222.68 232.66 222.73 233.18 223.3 233.89 224.01 233.97 224.29 234.34 224.57 234.96 225.04 235.28 226.19 235.22 226.56 234.77 226.33 235.44 226.98 236.17 228.19 236.81 228.74 237.31 228.84 237.88 229.41 238.25 230.33 238.59 230.65 238.47 231.29 238.64 232.75 239.53 233.75 239.91 234.46 239.95 234.8 240.13 235 240.63 236.04 241.39 236.62 241.75 237.43 242.51 237.94 242.72 238.18 243.19 238.13 243.59 238.14 244.12 239 244.3 239.86 244.65 240.9 245.72 241.87 246.62 242.52 246.82 242.66 246.96 243.6 246.5 244.42 245.96"/><polygon class="cls-1" points="247.88 222.51 247.91 223.06 247.28 224.09 247.31 226.71 246.85 227.9 247.2 228.97 247.31 231.39 247.04 232.7 246.58 233.21 246.74 234 246.98 234.5 247.07 235.45 246.68 236.05 247.77 238.55 247.69 239.45 246.93 240.46 246.08 241.03 245.51 242.25 245.84 242.61 246.3 242.7 246.4 243.17 246.58 243.21 246.66 244.16 247.42 244.84 247.82 245.22 247.94 245.93 247.77 246.67 247.91 247.08 248.1 248.35 248.7 249.2 250.41 250.6 250.56 251.18 250.12 252.27 250.4 253.03 249.47 255.05 250.01 255.82 251.87 257.55 254.65 265.03 255.69 265.03 255.96 264.55 256.56 264.44 256.56 264.44 257.05 263.83 257.7 262.47 259.18 260.94 260.16 260.62 261.08 261.44 262.18 261.32 262.83 261.16 263.65 261.38 265.01 261.1 265.72 261.22 265.89 262.19 266.43 263.78 266.71 264.21 267.04 263.78 266.98 263.07 267.41 262.36 267.41 261.65 268.01 260.78 270.2 260.78 272.1 260.83 272.82 261.5 273.13 260.24 274.14 258.16 274.21 257.15 274.08 256.12 273.7 255.52 274.9 253.75 275.39 252.34 275.39 251.71 276.26 251.13 281.43 249.7 285.74 249.77 288.25 251.62 288.85 251.72 289.27 252.2 289.77 251.51 289.67 250.96 291.52 247.25 291.42 245.4 289.45 241.91 287.49 241.47 287.6 239.94 287.27 237.54 280.61 237.43 280.72 235.69 279.31 233.29 279.74 232.42 279.42 231 279.63 229.25 279.31 228.6 277.78 227.72 275.6 227.94 274.62 227.4 273.85 227.18 273.63 226.09 272.59 225.71 270.96 225.16 270.36 225.21 269 223.74 268.01 224.01 266.71 222.71 265.12 223.09 264.8 223.47 263.98 222.71 262.78 221.94 261.9 221.51 261.63 220.36 260.76 219.98 260.1 218.56 260.43 217.8 259.94 216.05 260.54 214.96 260.1 213.6 260.22 212.72 259.78 212.34 258.9 212.89 258.14 212.34 257.32 212.34 256.12 212.94 254.87 213.16 253.07 214.31 252.41 216 251.32 216.32 250.4 216.32 249.58 216.97 248.98 216.97 247.89 217.57 246.79 217.53 244.4 217.53 244.4 217.53 247.88 222.51"/><polygon class="cls-6" points="288.25 251.62 285.74 249.77 281.43 249.7 276.26 251.13 275.39 251.71 275.39 252.34 274.9 253.75 273.7 255.52 274.08 256.12 274.21 257.15 274.14 258.16 273.13 260.24 272.82 261.5 272.92 261.6 273.8 262.52 274.5 262.69 275.43 264.38 277.78 266.72 278.71 266.83 279.63 267.65 280.23 268.63 282.52 269.18 284 269.94 284.67 270.09 286.34 271.53 288.02 272.37 290.28 272.67 291.18 273.68 292.3 274.61 292.73 275.54 292.49 276.35 291.91 277.25 291.27 277.74 290.88 278.37 291.1 279.16 290.55 280.63 289.38 281.83 289.16 282.67 289.82 282.65 292.49 282.24 294.75 282.91 296.33 283.87 297.2 283.49 297.69 283.49 298.07 283.9 298.83 282.91 299.19 282.72 300 282.97 300.69 282.12 300.98 281.15 302.7 279.95 302.95 279.13 303.46 278.21 304.14 277.64 304.23 276.24 304.09 275.86 304.17 274.8 304.39 274.66 304.42 274.2 304.52 273.81 304.51 273.33 304.62 273.2 304.77 272.79 304.87 269.23 305.23 268.62 304.69 268.51 304.12 267.99 303.27 267.67 301.78 268.48 301.1 268.29 300.44 266.85 299.49 262.74 299.21 261.87 298.5 261.65 297.58 261 295.83 261.71 294.74 261.32 293 261.44 292.4 261.16 290.98 261.27 290.7 260.45 290.98 259.63 290.76 258.71 291.14 256.42 290.38 255.27 290.32 254.12 289.39 253.42 289.62 252.6 288.85 251.72 288.25 251.62"/><polygon class="cls-5" points="311.14 308.98 311.03 308.8 310.9 308.52 310.54 307.37 311.25 306.39 311.42 305.33 310.57 304.72 309.64 303.35 308.77 302.25 307.3 301.6 306.57 301.76 306.52 300.73 305.64 299.85 304.74 299.67 303.71 299.2 302.84 297.78 302.45 297.72 301.72 298.52 301.29 298.52 300.38 297.05 299.92 296.01 299.16 295.69 298.29 294.49 297.5 293.97 295.59 294.55 295.19 294.33 294.62 294.31 294.56 294.52 294.2 295.37 293.52 296.23 293.77 297.43 293.47 298 293.69 298.63 293.55 300.32 293.28 300.92 293.36 301.57 292.9 302.39 293.28 303.56 293 303.97 293.2 305.65 293.52 306.88 293.28 307.44 292.72 307.96 292.58 308.2 292.58 308.28 292.6 309.95 293.12 311.3 294.23 312.83 294.61 312.92 295.66 313.97 296.22 314.11 297.88 313.94 298.87 314.01 299.76 314.64 300.34 314.74 300.93 314.78 301.12 314.97 301.01 315.24 300.99 315.65 301.76 315.68 302.58 315.18 303.64 314.98 304.39 315.24 304.87 315.52 305.26 315.45 305.82 315.67 306.38 315.72 306.75 315.45 306.84 315 307.04 314.86 307.35 315.13 308.76 314.61 309.67 313.56 309.92 313.17 309.78 313.05 310.15 312.45 310.88 311.77 310.88 310.71 311.48 310 311.79 309.74 311.58 309.57 311.14 308.98"/><polygon class="cls-6" points="292.72 307.96 293.28 307.44 293.52 306.88 293.2 305.65 293 303.97 293.28 303.56 292.9 302.39 293.36 301.57 293.28 300.92 293.55 300.32 293.69 298.63 293.47 298 293.77 297.43 293.52 296.23 294.2 295.37 294.56 294.52 294.62 294.31 294.72 293.97 295.43 293.48 295.43 293.13 296.06 292.09 296.6 291.52 297.36 290.13 297.66 289.67 298.21 289.5 298.18 288.66 298.4 288.09 299.6 286.62 300.06 286.7 300.57 286.54 300.63 285.61 301.1 285.45 302.51 284.28 303.11 284.11 303.41 283.63 304.96 282.59 305.2 282.72 305.75 282.26 305.89 281.96 306.81 281.47 307.58 281.5 307.79 280.96 307.66 279.6 307.49 278.12 307.55 276.84 306.84 275.24 306.79 274.47 305.04 274.23 304.39 274.66 304.17 274.8 304.09 275.86 304.23 276.24 304.14 277.64 303.46 278.21 302.95 279.13 302.7 279.95 300.98 281.15 300.69 282.12 300 282.97 299.19 282.72 298.83 282.91 298.07 283.9 297.69 283.49 297.2 283.49 296.33 283.87 294.75 282.91 292.49 282.24 289.82 282.65 289.16 282.67 289.38 281.83 290.55 280.63 291.1 279.16 290.88 278.37 291.27 277.74 291.91 277.25 292.49 276.35 292.73 275.54 292.3 274.61 291.18 273.68 290.28 272.67 288.02 272.37 286.34 271.53 284.67 270.09 284 269.94 282.52 269.18 280.23 268.63 279.63 267.65 278.71 266.83 277.78 266.72 275.43 264.38 274.5 262.69 273.8 262.52 272.92 261.6 272.82 261.5 272.1 260.83 270.2 260.78 268.01 260.78 267.41 261.65 267.41 262.36 266.98 263.07 267.04 263.78 266.71 264.21 266.43 263.78 265.89 262.19 265.72 261.22 265.01 261.1 263.65 261.38 262.83 261.16 262.18 261.32 261.08 261.44 260.16 260.62 259.18 260.94 257.7 262.47 257.05 263.83 256.56 264.44 257.06 265.46 256.08 269.73 251.56 272.13 251.26 273.11 252.04 273.77 252.24 274.45 251.78 275.26 251.99 276.54 252.81 277.57 252.81 278.53 252.13 279.05 251.97 279.79 252.43 280.16 252.7 280.71 252.75 281.77 253.11 282.16 252.54 282.84 251.8 283.21 250.82 284.22 249.81 286.75 249.11 287.71 248.83 290.52 248.31 291.03 248.43 293.4 249.11 294.65 249.06 296.31 248.45 297.08 248.43 298.95 247.37 299.44 247.17 300.89 247.55 302.74 248.23 303.67 248.37 304.38 249.24 305.76 249.84 306.91 250.31 309.11 250.85 309.63 251.18 312.55 250.98 314.35 250.25 314.59 249.63 316.12 249.84 317.61 248.97 318.89 249.49 319.32 250.25 320.61 250.44 321.96 249.54 322.89 248.75 324.47 248.78 327.09 248.78 328.17 248.51 329.64 250.77 334.09 250.23 334.74 249.22 335.23 249 337.3 247.61 339.16 247.77 340.46 248.48 341.64 248.23 344.46 248.37 346.94 248.7 348.71 249.41 349.07 249.81 349.83 249.57 350.81 248.75 351.35 248.91 354.24 249.27 355.36 250.47 355.76 250.39 357.04 250.44 358.13 251.15 359.66 251.5 361.4 252.22 361.53 252.79 361.14 253.3 361.35 253.35 362.26 252.52 363.23 250.81 363.22 250.54 363.86 251 364.31 251.25 364.09 252.04 364.09 253.3 364.97 254.07 366.36 254.1 367.22 253.13 368.07 253.06 368.81 253.56 369.8 253.84 371.89 254.28 373.51 253.59 374.2 253.48 375.08 254.23 376.87 253.46 377.74 253.16 379.46 253.65 380.93 254.03 382.91 253.65 384.85 252.35 386.21 251.56 387.35 251.06 390.73 251.29 391.94 252.96 395.26 253.73 395.27 254.39 394.53 255.59 393.95 256.38 393.92 256.38 394.92 256.62 397.09 257.44 397.84 257.82 399.17 258.42 400.75 260.24 400.89 260.87 401.25 263.59 400.78 268.48 400.78 268.74 401.1 269.56 401.21 270.6 402.15 271.47 402.56 271.8 402.59 271.72 401.88 270.96 401.29 269.68 400.5 269.54 399.75 268.89 399.13 268.45 399.26 268.05 398.86 268.61 398.53 268.75 398.04 268.54 397.93 268.54 397.39 267.91 395.65 267.17 394.51 267.04 393.39 267.47 392.14 268.4 391.37 268.72 390.78 268.45 390.48 268.45 389.79 268.1 389.33 268.59 389.6 269.08 390.15 269.65 390.33 270.44 389.69 270.55 389.09 271.23 388.3 271.45 387.7 271.2 386.55 270.63 386.42 270.28 386.69 270.44 386.19 271.09 385.57 271.36 384.76 271.53 383.91 272.4 383.07 273.13 383.01 273.41 382.13 273.95 381.4 274.33 381.27 274.47 380.67 275.07 380.37 275.67 379.69 275.53 379.42 275.62 378.92 276.07 378.61 275.4 377.98 274.96 377.98 275.62 377.35 275.62 376.75 275.18 375.85 275.18 375.44 275.45 375.14 275.2 374.73 274.61 374.54 274.28 374.7 273.6 374.68 272.35 374.79 270.85 373.4 269.84 372.53 269.32 372.36 268.56 371.74 267.74 370.38 267.74 369.56 267.28 368.93 267.33 368.47 268.18 367.87 268.48 367.21 268.75 366.32 269.24 366.21 269.87 365.47 270.71 365.37 271.42 364.6 272.51 364.44 273.19 364.55 274.39 364.33 274.44 364 274.09 363.65 273.35 363.38 273.46 363.05 273.6 362.48 274.63 361.8 274.44 361.58 274.8 361.06 274.82 360.71 273.92 359.73 274.06 359.27 274.06 358.75 273.79 358.34 273.54 357.38 274.14 356.76 274.44 356.03 274.17 355.73 274.61 355.24 275.78 354.8 276.59 354.04 276.57 353.65 275.45 353.33 274.69 353.3 274.36 352.75 274.5 352.35 275.18 351.83 276.19 351.45 277.11 351.94 277.11 352.37 276.98 352.7 277.27 353.44 277.82 353.63 279.29 352.78 279.51 352.05 279.15 351.26 278.67 350.66 278.96 350.52 279.13 349.85 278.61 348.97 278.04 348.92 277.3 349.41 276.73 349.44 276.38 349.73 276.59 349.9 277.22 350.06 277.17 350.47 275.89 350.85 275.31 350.64 275.67 350.28 276.1 350.03 275.7 349.82 274.55 349.9 273.68 349.41 273.44 348.73 273.46 346.93 273.17 345.57 272.35 344.83 272.37 343.5 273.13 342.73 273.71 342.71 273.46 343.14 273.68 343.28 274.53 343.2 275.97 343.66 277.3 344.77 278.45 345.06 280.57 345.02 281.85 344.15 281.74 343.91 282.61 343.28 282.77 342.57 282.58 342.03 282.81 341.62 283.02 340.99 282.37 340.81 281.9 340.01 281.9 339.34 282.18 338.82 282.01 338.46 282.69 337.78 282.67 337.53 282.94 337.45 283.05 336.96 282.91 336.31 282.28 336.25 282.37 335.84 282.01 335.33 282.01 334 281.82 333.56 281.82 332.94 282.07 332.69 282.4 333.13 282.91 333.13 283.97 333.48 284.81 334.02 285.55 334.02 286.73 333.8 287.98 334 289.56 333.92 292.2 333.23 294.51 332.28 294.62 331.79 294.92 332.2 296.53 331.65 298.6 330.38 298.9 329.64 298.68 328.77 299.06 327.6 299.33 327.35 299.44 327.75 299.71 327.38 299.99 326.18 300.72 324.99 300.89 324.24 300.89 322.64 300.72 322.01 300.53 321.99 300.04 322.51 299.23 322.48 298.24 321.83 297.67 320.74 297.72 320.19 298.65 318.34 298.7 317.58 298.27 317.02 296.31 315.51 294.73 314.9 293.15 313.68 292.77 313 293.01 312.76 292.99 312.1 292.51 311.61 292.66 311.18 292.39 309.81 292.58 308.27 292.58 308.28 292.58 308.2 292.72 307.96"/><polygon class="cls-8" points="284.68 414.38 283.29 414.71 282.5 414.63 281.58 413.78 280.49 413.46 280.13 413.05 277.19 412.1 276.38 411.82 276.32 410.95 275.37 410.16 274.39 410.03 273.95 408.78 273.54 408.03 272.62 408.2 271.8 407.89 273.57 414.94 273.83 415 275.18 414.74 276.22 414.74 277.23 414.55 277.1 414.8 276.48 414.93 275.48 415.28 273.68 415.35 274.04 416.78 274.44 416.78 275.72 416.34 277.3 416.47 278.39 416.39 279.95 416.56 280.79 417.02 281.66 417.32 282.5 417.11 283.18 416.42 283.35 415.77 284.17 415.52 284.52 415.83 285.47 415.28 285.33 414.63 284.68 414.38"/><polygon class="cls-8" points="272.02 407.11 272.59 406.87 273 407.27 272.62 405.42 271.39 404.2 270.82 403.35 270.67 403.42 271.75 407.71 272.02 407.11"/><polygon class="cls-8" points="289.1 415.1 288.08 415.15 287.61 415.44 288.21 415.97 289.04 415.44 289.81 415.24 290.49 414.6 289.62 414.56 289.1 415.1"/><path class="cls-6" d="M242.66,364.71l.14-.3.95-.19.36-.38-1.59,0-.18.6A2.93,2.93,0,0,0,242.66,364.71Z"/><polygon class="cls-6" points="243.19 387.34 243.83 386.32 244.27 386.16 243.98 385.54 243.11 385.15 242.96 384.92 242.55 385.32 242.95 386.59 242.91 387.17 243.19 387.34"/><polygon class="cls-6" points="242.85 383.91 242.6 383.18 242.07 382.95 241.78 382.86 241.81 383.89 242.22 384.2 242.28 384.53 242.71 384.46 242.85 383.91"/><polygon class="cls-9" points="243.11 389.28 243.46 389.71 243.33 390.14 243.72 390.54 244.2 390.2 244.38 389.57 243.92 388.83 243.11 389.28"/><polygon class="cls-6" points="241.69 361.79 241.81 362.14 242.21 362.25 242.79 362.01 242.88 361.69 242.5 361.29 241.94 361.27 241.69 361.79"/><polygon class="cls-6" points="244.35 363.6 244.9 363.65 244.68 362.81 244.35 363.6"/><polygon class="cls-6" points="243.92 369.01 243.62 368.42 242.96 368.28 242.75 367.95 242.45 368.39 243.15 369.18 243.92 369.01"/><polygon class="cls-9" points="245.06 394.8 245.44 394.53 245.93 394.18 245.06 394.18 245.06 394.8"/><polygon class="cls-6" points="243 361.27 243.14 360.87 242.81 360.63 242.66 360.84 243 361.27"/><polygon class="cls-9" points="249.07 395.2 248.43 394.17 247.95 394.14 247.45 393.73 247.13 393.74 247.09 394.01 247.72 394.92 248.4 395.18 249.33 396.01 249.07 395.2"/><polygon class="cls-6" points="244.24 365.2 243.7 365.26 242.85 365.53 243.21 365.86 244.19 365.83 244.24 365.2"/><polygon class="cls-6" points="245.55 390.85 245.91 390.61 246.09 389.85 246.31 390.5 246.45 391.32 246.86 391.56 247.38 391.15 247.4 390.01 247 388.98 247.15 388.71 247.05 387.31 246.62 386.49 246.23 384.83 245.74 384.48 244.68 384.48 244.27 384.83 244.3 385.68 244.73 386.14 244.51 386.8 244.62 387.21 244.95 387.18 245.25 386.74 245.2 387.26 244.65 387.72 243.89 387.86 244.65 389.36 244.9 390.26 245.55 390.85"/><polygon class="cls-9" points="247.43 395.2 247.07 395.3 247.26 396.25 248.06 397.23 248.71 397.25 249 396.76 248.24 395.64 247.43 395.2"/><polygon class="cls-6" points="244.32 368.64 244.73 368.15 243.97 368.17 244.32 368.64"/><polygon class="cls-6" points="241.82 369.01 242.23 369.04 242.12 368.39 241.79 368.42 241.82 369.01"/><polygon class="cls-6" points="242.88 363.21 242.5 362.48 241.74 362.45 241.9 362.92 241.85 363.52 242.31 363.32 242.88 363.21"/><polygon class="cls-6" points="240.02 358.91 240.42 359.29 241.36 358.94 240.89 358.58 240.31 358.58 240.02 358.91"/><polygon class="cls-6" points="242.37 359.44 242.79 359.85 243.54 359.38 242.55 359.15 242.37 359.44"/><polygon class="cls-6" points="239.34 364.36 240.3 364.77 240.54 364.3 240.13 363.87 239.42 363.87 239.34 364.36"/><polygon class="cls-6" points="240.71 363.5 241 363.8 241.47 363.44 241.08 363.04 240.71 363.5"/><polygon class="cls-6" points="243.72 359.94 244.21 360.35 244.27 360.8 244.76 360.53 244.66 359.78 244.1 359.61 243.72 359.94"/><polygon class="cls-6" points="244.11 363.24 244.11 362.26 243.37 362.53 244.11 363.24"/><polygon class="cls-6" points="243.62 367.21 242.99 367.27 243.59 367.92 243.62 367.21"/><polygon class="cls-6" points="244.62 383.89 245.36 383.81 246.15 383.89 245.77 382.63 245.17 382.09 245.12 381.27 244.41 380.97 244.32 379.77 243.72 380.12 243.07 380.21 242.77 380.64 243.48 381.24 244.38 382.61 244.54 382.33 244.9 382.63 244.44 383.03 244.62 383.89"/><polygon class="cls-6" points="241.91 380.88 241.68 381.14 241.65 381.6 241.82 382.48 242.59 382.63 243.07 383.02 242.99 383.31 243.29 384.42 243.89 384.79 244.13 384.38 244.17 383.56 243.52 382.59 242.54 381.06 241.91 380.88"/><polygon class="cls-9" points="246.75 395.45 246.75 394.8 246.53 394.39 246.34 394.93 246.56 395.73 246.75 395.45"/><path class="cls-9" d="M252.89,410.3l-.33.26.81.23S252.86,410.33,252.89,410.3Z"/><polygon class="cls-9" points="251.38 400.72 250.97 399.82 250.65 399.84 250.66 400.97 251.09 401.45 251.99 401.87 252.22 401.84 252.01 401.42 251.38 400.72"/><polygon class="cls-9" points="260.98 412.41 260.72 411.85 260.19 411.63 259.42 411.87 259.24 411.45 258.77 411.25 257.72 410.49 256.92 410.53 256.25 410.81 255.88 410.63 255.5 410.26 254.91 410.31 254.68 410.62 254.74 411.01 255.44 411.39 255.71 412.07 256.41 412.22 257.17 413.12 257.72 413.21 258.55 413.05 258.95 413.29 259.03 413.8 259.49 414.27 260.03 414.04 259.82 413.69 260.39 413.14 260.35 412.76 260.05 412.53 260.42 412.37 260.98 412.41"/><polygon class="cls-9" points="252.18 402.97 252.03 402.37 251.53 402.25 251.3 402.43 251.87 403.01 252.18 402.97"/><polygon class="cls-9" points="257.91 413.59 258.1 413.72 258.41 413.95 258.7 413.69 258.31 413.31 257.91 413.59"/><polygon class="cls-9" points="256.01 410.26 256.75 410.26 256.87 410.03 256.67 409.74 256.35 409.7 255.62 409.17 255.29 408.81 254.42 408.81 253.82 408.48 253.18 408.24 252.55 408.21 252.03 407.9 251.24 406.97 250.81 406.68 250.6 407.03 250.78 407.76 251.25 408.67 252.03 408.79 253.08 409.24 253.45 409.78 254.03 409.78 254.32 409.6 255.33 409.99 256.01 410.26"/><polygon class="cls-9" points="249.62 402.72 249.65 403.46 249.37 403.75 249.48 404 249.84 403.81 250.17 402.97 249.98 402.6 249.62 402.72"/><polygon class="cls-9" points="251.06 402.12 250.9 401.69 250.13 401.3 250.28 401.73 250.86 402.15 251.06 402.12"/><polygon class="cls-9" points="251.13 403.1 251.4 403.57 252.23 404.45 252.52 404.35 252.55 403.79 251.34 402.84 251.13 403.1"/><polygon class="cls-9" points="251.8 404.88 251.23 405.1 251.51 405.33 252.23 405.29 252.36 405.69 252.74 406.01 253.07 406.19 253.45 405.57 253.22 404.85 252.32 404.99 251.8 404.88"/><path class="cls-9" d="M278.14,422.24l.33.24L279,422h-.37S278.15,422.29,278.14,422.24Z"/><polygon class="cls-9" points="260.93 413.83 260.49 414.33 260.5 414.82 260.99 414.66 261.35 414.1 261.5 413.89 261.14 413.73 260.93 413.83"/><polygon class="cls-9" points="279.33 420.48 279.53 420.89 279.11 421.44 279.47 421.83 279.9 421.86 279.93 421.24 279.82 420.66 279.33 420.48"/><polygon class="cls-9" points="273.25 415.37 272.54 414.9 271.23 414.41 269.32 413.84 268.45 413.54 268.4 413.84 268.64 414.16 268.35 414.4 268.03 414.27 266.75 413.74 266.06 413.38 265.88 413.55 266.17 413.91 267.8 414.69 267.9 414.98 267.42 414.98 267.27 415.04 267.24 415.36 266.96 415.41 266.74 414.98 265.96 414.49 265.71 414.71 265.78 415.19 265.33 415.28 264.08 415.37 263.81 415.54 264.08 415.81 263.97 416.01 263.35 415.89 262.63 416.08 262.75 416.51 263.59 416.66 264.26 416.63 264.46 416.27 264.66 416.12 265.12 416.33 265.84 416.81 266.21 416.64 266.42 416.92 266.42 417.34 266.89 417.63 266.35 417.9 266.02 418.57 266.44 419.06 266.93 419.04 267.37 419.23 268 419.86 268.44 419.86 268.53 419.61 268.08 419.27 267.34 418.83 267.24 418.44 267.43 418.41 267.98 418.65 268.41 418.34 268.52 418.01 268.02 417.9 267.6 417.62 269.22 417 269.87 416.67 272.86 417.43 273.25 417.19 273.17 416.78 274.04 416.78 273.68 415.35 273.25 415.37"/><polygon class="cls-9" points="266.23 410.42 266.08 409.62 265.63 409.35 265.52 410.1 265.26 410.81 265.6 411.45 265.34 411.9 265.34 412.46 266.01 412.84 266.74 413.03 267 413.28 267.27 412.94 266.45 412.32 266.94 411.83 266.62 411.41 266.7 411.13 266.23 410.42"/><polygon class="cls-9" points="249.96 401.8 249.95 401.13 249.56 400.75 249.25 400.41 249.01 400.56 248.86 400.94 249 401.5 249.14 401.71 249.21 402.03 249.52 402.11 249.96 401.8"/><polygon class="cls-9" points="278.77 418.98 279.35 418.6 279.73 418.22 279.35 417.85 279.21 417.19 278.5 417 277.41 417.02 276.48 417.11 275.31 417 274.33 417.43 272.51 417.85 271.63 417.71 271.26 417.79 270.66 417.79 270.11 418.06 270.52 418.44 270.98 418.22 271.58 418.51 270.5 418.93 269.89 419.23 269.87 419.56 270.47 419.99 271.01 419.53 270.77 420.1 271.28 420.29 271.47 420.67 271.96 420.46 272.84 420.86 273.17 420.83 273.25 420.26 272.67 419.94 272.75 419.58 273.54 419.5 273.79 420.18 274.33 420.57 274.91 420.26 275.45 420.4 276.3 421.16 276.59 421.22 276.59 420.54 275.81 419.85 275.18 419.61 275.42 419.34 275.1 419.07 274.2 418.87 274.01 418.96 273.3 418.42 274.2 418.28 274.63 418.28 275.2 417.68 275.78 417.71 276.1 418.42 276.43 418.87 277.3 418.82 278.01 418.34 278.42 418.51 278.77 418.98"/><polygon class="cls-9" points="264.46 418.56 264.95 419.01 265.39 418.53 265.07 418.27 264.46 418.56"/><polygon class="cls-9" points="263.44 414.27 263.75 413.98 263.99 414.34 264.61 414.52 265.06 414.19 264.87 413.76 265.15 413.19 264.86 412.99 264.49 413.06 264.16 413.39 263.83 412.91 262.51 412.56 262.25 412.79 261.23 412.88 261.24 413.26 261.66 413.5 262 414.1 262.33 413.77 263 413.87 263.44 414.27"/><polygon class="cls-9" points="265.17 417.42 264.65 417.16 264.46 417.61 264.7 417.86 265.13 417.85 265.17 417.42"/><polygon class="cls-6" points="240.56 351.63 240.39 352.2 240.59 352.66 240.8 352.87 241.12 353.81 241.27 356.12 240.89 356.96 241.76 357.33 243.01 357.2 243.03 356.88 242.95 356.1 243.26 355.55 244.01 355.8 244.16 355.65 243.34 354.88 243.67 354.55 242.83 353.71 242.77 353.28 243.21 353.25 243.94 353.65 243.97 353.49 243.7 353.13 242.79 352.49 243.63 352.74 243.64 351.99 243.48 351.71 243.52 350.7 242.86 349.75 242.17 349.45 241.33 349.43 240.8 349.93 240.77 350.35 241.03 350.71 240.98 351.3 240.56 351.63"/><polygon class="cls-9" points="247.87 400.17 248.02 400.47 248.2 400.64 247.9 400.91 247.69 401.29 247.91 401.85 248.26 402.1 248.72 402.18 248.34 401.6 248.72 401.31 248.74 400.6 248.47 400.11 247.87 400.17"/><polygon class="cls-6" points="244.98 365.99 244.16 365.99 243.51 366.38 243.92 366.7 244.16 367.52 244.65 367.76 245.06 367.19 244.98 365.99"/><polygon class="cls-6" points="245.33 361.56 245.53 361.93 246.28 361.88 245.63 361.36 245.33 361.56"/><polygon class="cls-6" points="245.58 364.17 245.63 365.01 246.18 364.44 246.56 364.52 246.91 364.71 247.4 364.6 247.62 364.08 248.03 363.49 247.43 362.83 247.26 362.29 246.56 362.15 245.8 362.45 245.44 363.57 245.58 364.17"/><polygon class="cls-6" points="244.44 351.8 245.09 352.35 245.36 351.94 244.98 351.56 244.44 351.8"/><polygon class="cls-6" points="245.92 359.27 245.25 359.72 245.5 360.18 245.92 359.78 245.92 359.27"/><polygon class="cls-9" points="248.56 398.95 248.65 398.71 249.23 398.69 249.26 398.28 248.2 397.57 247.72 397.61 247.2 397.13 246.72 397.25 247.1 397.89 246.74 398.64 246.41 398.98 246.75 399.22 247.8 399.02 248.56 398.95"/><polygon class="cls-6" points="268.74 401.1 268.48 400.78 263.59 400.78 260.87 401.25 260.24 400.89 258.42 400.75 257.82 399.17 257.44 397.84 256.62 397.09 256.38 394.92 256.38 393.92 255.59 393.95 254.39 394.53 253.73 395.27 252.96 395.26 251.29 391.94 251.06 390.73 251.56 387.35 252.35 386.21 253.65 384.85 254.03 382.91 253.65 380.93 253.16 379.46 253.46 377.74 254.23 376.87 253.48 375.08 253.59 374.2 254.28 373.51 253.84 371.89 253.56 369.8 253.06 368.81 253.13 368.07 254.1 367.22 254.07 366.36 253.3 364.97 252.04 364.09 251.25 364.09 251 364.31 250.54 363.86 250.81 363.22 252.52 363.23 253.35 362.26 253.3 361.35 252.79 361.14 252.22 361.53 251.5 361.4 251.15 359.66 250.44 358.13 250.39 357.04 250.47 355.76 249.27 355.36 248.91 354.24 248.75 351.35 249.57 350.81 249.81 349.83 249.41 349.07 248.7 348.71 248.37 346.94 248.23 344.46 248.48 341.64 247.77 340.46 247.61 339.16 249 337.3 249.22 335.23 250.23 334.74 250.77 334.09 248.51 329.64 248.78 328.17 248.78 327.09 248.75 324.47 249.54 322.89 250.44 321.96 250.25 320.61 249.49 319.32 248.97 318.89 249.84 317.61 249.63 316.12 250.25 314.59 250.98 314.35 251.18 312.55 250.85 309.63 250.31 309.11 249.84 306.91 249.24 305.76 248.37 304.38 248.23 303.67 247.55 302.74 247.17 300.89 247.37 299.44 248.43 298.95 248.45 297.08 249.06 296.31 249.11 294.65 248.43 293.4 248.31 291.03 248.83 290.52 249.11 287.71 249.81 286.75 250.82 284.22 251.8 283.21 252.54 282.84 253.11 282.16 252.75 281.77 252.7 280.71 252.43 280.16 251.97 279.79 252.13 279.05 252.81 278.53 252.81 277.57 251.99 276.54 251.78 275.26 252.24 274.45 252.04 273.77 251.26 273.11 251.56 272.13 256.08 269.73 257.06 265.46 256.56 264.44 255.96 264.55 255.69 265.03 254.65 265.03 251.87 257.55 250.01 255.82 249.47 255.05 250.4 253.03 250.12 252.27 250.56 251.18 250.41 250.6 248.7 249.2 248.1 248.35 247.91 247.08 247.77 246.67 247.94 245.93 247.82 245.22 247.42 244.84 246.66 244.16 246.58 243.21 246.4 243.17 245.86 243.05 245.49 243.67 245.24 244.33 245.92 244.98 245.65 245.61 244.91 246.07 244.42 245.96 243.6 246.5 242.66 246.96 242.99 247.26 243.07 248.33 242.97 249.12 243.15 250.19 243.75 253.01 243.75 254.07 243.54 254.84 243.13 255.27 243.43 256.71 243.89 258.13 244.38 259.32 244.38 261.29 244.16 261.84 244 262.19 244.13 264.86 244.13 265.51 243.59 265.83 243.07 266.19 243.15 267.69 243.4 268.06 243.89 267.71 244.19 267.99 243.72 268.42 243.75 272.37 244.3 273.87 244.41 275.04 244.27 276.02 243.64 277.03 243.64 278.01 244.35 279.29 244.19 280.08 244.11 281.99 243.7 282.69 243.7 283.73 243.89 284.27 243.89 284.73 243.26 285.69 243.21 286.67 242.83 287.29 243.05 288.49 242.91 289.01 242.28 290.43 242.28 291.02 242.96 292.09 243.1 293.18 243.54 293.86 242.99 294.24 242.66 295.08 243.18 295.74 242.63 296.39 242.12 296.61 242.09 297.59 242.26 298.43 242.34 299.22 243.21 301.48 243.21 302.74 242.85 303.14 242.94 303.82 243.72 304.97 243.78 306.3 243.54 307.22 243.56 307.61 243.75 308.26 243.64 308.83 243.45 309.49 243.67 309.87 244.51 311.04 244.62 311.69 244.21 312.35 243.64 312.71 243.13 313.76 243.13 314.09 243.43 314.44 243.15 315.34 242.72 315.83 242.72 316.46 242.61 317.61 242.28 318.22 242.34 318.91 242.15 319.24 242.06 320.17 241.63 320.63 241.69 321.03 241.96 321.47 241.49 322.15 241.47 323.18 241.38 323.81 240.87 324.17 240.87 324.87 240.62 325.34 240.57 325.88 240.81 326.51 240.84 327.27 240.41 327.9 239.97 327.95 239.5 327.6 238.96 327.73 238.88 328.19 239.01 329.01 239.04 330.15 239.56 330.92 240.38 331.6 240.49 332.39 240.35 333.4 241.52 335.38 241.71 335.93 242.17 336.36 242.17 337.64 241.85 339.3 241.55 339.55 241.69 340.07 241.55 340.56 241.27 340.39 240.87 340.45 240.62 341.13 240.81 341.84 241.3 342.25 240.9 343.8 241.03 344.48 240.67 344.92 241.08 345.27 240.92 345.79 240.76 346.03 241 346.42 242.17 348.24 242.52 348.59 242.8 349.17 243.89 349.63 244.95 349.35 245 348.29 245.17 348.07 245.85 348.1 246.42 348.78 246.67 348.62 247.15 348.54 246.77 349.11 245.96 349.85 245.96 350.34 246.59 350.61 247.02 350.34 247.1 350.9 247.18 352.21 247.54 352.65 247.35 352.84 247 352.46 246.72 351.83 246.28 351.64 246.07 352.02 246.12 352.4 246.83 352.92 246.96 353.3 246.48 353.47 246.15 353.74 246.21 354.66 246.83 355.26 246.26 355.92 246.21 356.44 246.48 356.65 245.82 357.36 245.93 357.74 246.75 358.25 246.53 358.88 246.39 359.81 245.93 360.38 245.91 360.85 246.28 361.23 247.02 361.26 247.48 361.72 247.56 362.29 248.22 362.4 248.52 362.87 248.44 364.06 247.89 364.88 246.91 365.47 246.48 365.47 246.39 366.21 246.7 367.03 246.42 367.38 246.45 367.84 246.75 368.03 246.21 368.69 245.8 369.86 245.77 370.7 246.18 370.89 245.99 371.33 245.93 372.75 245.41 373.02 245.28 373.75 245 373.32 245.28 372.96 245.5 371.76 245.39 371.14 245.53 370.76 245.2 370.65 244.21 370.98 243.51 371.46 243.1 371.41 243.13 371.08 243.81 370.84 244.24 370.51 244.24 369.48 243.97 369.29 243.21 369.56 241.87 369.62 241.44 369.48 240.92 369.62 240.9 370.05 241.27 370.84 241.55 370.87 241.71 371.46 241.25 371.55 241 372.26 240.49 372.64 240.21 373.27 239.23 373.81 239.18 374.38 240.21 375.52 240.78 375.61 241.14 375.23 241.08 374.76 240.41 374.57 240.32 374.19 240.67 373.48 241.63 373.4 241.82 373.16 241.99 374.02 242.69 374.49 243.54 374.46 243.89 374.07 244.35 374.27 244.62 374.7 245.6 375.2 245.99 375.63 245.58 375.71 245.39 376.1 245.71 376.53 245.28 376.85 244.95 377.38 245.25 377.81 245.93 378.25 245.82 378.46 245.14 378.17 244.9 377.81 244.49 377.87 244.44 378.46 245 378.98 245.25 379.5 246.26 379.66 247.26 379.15 247.68 379.56 248.06 379.53 248.68 379.25 248.41 379.74 248.54 380.02 248.3 380.18 247.62 380.21 247.43 380.48 246.91 380.07 245.77 380.37 245.5 380.91 245.63 381.3 246.37 381.76 246.5 382.38 247.15 382.55 247.7 382.25 247.62 382.66 247.05 383.2 247.07 383.58 247.18 383.91 246.96 384.35 246.56 384.38 246.5 384.86 246.94 386.69 247.35 387.21 247.32 388.05 247.76 388.78 248.36 389.03 248.36 387.78 248.74 386.36 249.25 386.01 249.44 386.33 249.09 386.36 248.65 387.94 248.71 388.34 249.28 388.73 249.77 388.71 249.58 388.89 248.71 389.09 248.06 389.69 248.17 390.07 248 390.74 248 391.4 247.62 391.67 247.32 392.33 247.38 392.82 248.41 393.57 249.85 393.88 250.43 394.31 250.32 394.66 249.99 394.69 250.21 395.4 250.48 395.78 251.08 395.1 251.05 395.68 250.89 396.14 250.29 396.35 249.85 396.95 250.23 397.2 250.78 397.2 250.78 397.66 251.35 398.34 251.71 398.32 252.13 397.9 252.06 398.62 252.28 399.33 251.92 399.31 251.59 399.07 251.24 399.12 251.08 399.56 251.76 400.39 252 400.47 252.25 401.26 252.58 401.69 253.23 402.29 253.75 402.21 253.39 401.2 253.56 400.76 253.37 400.19 253.99 400.63 254.1 401.23 254.53 401.83 254.81 401.1 255.28 400.63 255.24 400.14 254.75 399.98 253.86 399.84 253.86 399.54 254.43 399.54 255.63 399.9 255.82 400.17 256.58 400.19 256.39 399.57 255.65 399.19 254.32 399.1 254.26 398.78 254.67 398.62 255.84 399.05 257.04 399.73 257.23 400.63 256.74 401.17 256.71 401.75 257.21 402.75 257.15 403.29 256.61 403.71 256.88 402.84 256.36 401.62 255.84 401.17 255.54 401.63 255.49 402.24 255.82 402.7 255.52 403.27 255.28 402.97 255.11 402.34 254.7 402.34 254.13 402.75 253.28 402.75 252.58 403.03 253.23 403.52 253.28 404.42 253.6 404.99 253.72 405.44 253.49 405.83 253.61 406.08 254.12 406.18 254.41 405.61 254.75 405.82 255.32 406.01 255.32 406.23 254.78 406.44 254.25 406.9 254.41 407.3 255.31 407.37 256.34 407.96 256.71 407.82 257.02 407.35 256.72 406.58 256.92 406.01 256.69 405.42 256.41 405.58 255.87 405.51 256.06 405.3 256.48 405 256.46 404.56 256.8 404.38 257.63 404.67 257.99 404.44 258.13 404.84 258.51 405 258.69 404.63 259.42 404.45 260.08 404.67 260.81 404.59 261.46 404.64 261.53 404.92 261.12 405.11 260.79 405.58 260.35 405.48 259.89 405.11 259.4 405.25 258.23 406.28 257.95 406.33 257.61 406.26 257.17 406.75 257.27 407.19 257.02 407.69 256.82 407.98 256.85 408.27 257.17 408.47 256.89 408.81 256.89 409.11 257.99 409.49 258.78 410.18 259.03 410.19 259.18 409.85 259.01 409.27 259.45 408.74 259.94 408.62 260.01 408.32 259.42 407.66 260.42 407.46 261.04 406.92 261.68 405.97 262.14 405.69 262.26 405.88 262.78 406.17 263.21 406.15 263.3 406.34 262.78 406.56 262.41 407.17 262.29 407.62 261.63 408.27 261.63 409.04 261.86 409.55 261.47 409.99 260.87 410.25 260.9 409.93 261.21 409.7 261.23 408.77 260.98 408.62 260.63 408.88 260.51 409.37 260.24 409.27 259.82 409.32 259.53 409.67 259.92 410.3 261.13 411.48 262.21 411.65 262.92 412.05 263.38 412.02 263.87 412.28 264.21 411.92 264.66 411.08 264.28 409.93 264.39 409.37 264.34 408.88 264.46 407.89 264.53 406.75 264.34 406 264.45 405.48 265.38 404.93 266.25 403.9 266.76 403.68 267.53 403.68 267.82 403.38 267.74 402.43 268.18 402.02 269.02 401.8 270 402.37 270.47 402.1 270.6 402.15 269.56 401.21 268.74 401.1"/><polygon class="cls-9" points="271.69 407.84 271.75 407.71 270.67 403.42 269.65 403.84 269.32 404.12 268.75 403.57 268.21 403.44 267.91 404.01 268.07 404.61 267.96 405.1 267.31 405.72 267.12 406.05 266.36 405.62 265.9 405.48 265.43 406.13 265.9 406.48 266.46 406.4 266.36 406.95 265.73 407.57 265.94 408.03 266 408.91 266.73 409.83 267.28 409.81 267.82 409.18 268.92 408.58 269.73 408.61 269.95 409.24 269.44 410.11 268.7 410.33 268.56 410.7 267.39 411.27 267.39 411.61 267.5 411.94 268.18 412.63 269 413.13 269.63 413.06 270.91 413.52 272.71 414.73 273.57 414.94 271.8 407.89 271.69 407.84"/><polygon class="cls-9" points="246.54 392.1 245.7 391.98 245.35 391.8 245.17 391.97 245.14 392.4 244.86 392.79 245.31 393.13 245.51 393.7 245.84 393.71 246.26 393.37 246.23 392.74 246.54 392.1"/><polygon class="cls-6" points="276.94 132.47 275.56 133.07 274.88 132.79 274.03 133.03 273.8 133.48 274.52 134.11 274.58 134.8 273.83 135.45 273.06 135.74 273.92 136.09 275.78 135.79 276.56 135.13 276.53 134.3 276.13 133.63 276.99 132.76 276.94 132.47"/><polygon class="cls-6" points="278.1 131.51 277.32 131.86 277.96 132.13 278.1 131.51"/><text class="cls-10" transform="translate(106.99 78.91)">MXICO</text><text class="cls-11" transform="translate(240.77 144.13)">VENEZUELA</text><text class="cls-12" transform="translate(213.94 167.24)">COLOMBIA</text><text class="cls-13" transform="translate(162.76 177.28)">ECUADOR</text><text class="cls-10" transform="translate(222.4 229.1)">PER</text><text class="cls-14" transform="translate(281.31 266.8)"><tspan class="cls-15">P</tspan><tspan x="1.66" y="0">ARAGU</tspan><tspan class="cls-16" x="11.51" y="0">A</tspan><tspan class="cls-17" x="13.17" y="0">Y</tspan></text><text class="cls-11" transform="translate(237.05 295.04)">CHILE</text><text class="cls-11" transform="translate(262.11 318.04)">ARGENTINA</text><text class="cls-10" transform="translate(268.73 309.93)">URUGU<tspan class="cls-18" x="28.91" y="0">A</tspan><tspan class="cls-19" x="33.68" y="0">Y</tspan></text><text class="cls-20" transform="translate(256.02 240.77)">BOLIVIA</text><text class="cls-10" transform="translate(295.03 219.72)">BRASIL</text><text class="cls-11" transform="translate(298.82 161.82)">FRENCH<tspan x="1.04" y="4.48">GUANA</tspan></text><text class="cls-11" transform="translate(284.12 157.75)">SURINAME</text><text class="cls-20" transform="translate(274.8 154.06)">GU<tspan class="cls-21" x="5.53" y="0">Y</tspan><tspan x="7.67" y="0">ANA</tspan></text><text class="cls-13" transform="translate(178.55 153)"><tspan class="cls-22">P</tspan><tspan x="4.63" y="0">ANAM</tspan></text><text class="cls-13" transform="translate(141.27 140.29)">COS<tspan class="cls-23" x="16.63" y="0">T</tspan><tspan x="20.54" y="0">A RICA</tspan></text><text class="cls-14" transform="translate(176.2 126.36)">NICARAGUA</text><text class="cls-14" transform="translate(158.28 122.88)">EL SA<tspan class="cls-24" x="7.83" y="0">L</tspan><tspan class="cls-25" x="9.18" y="0">V</tspan><tspan x="10.76" y="0">ADOR</tspan></text><text class="cls-14" transform="translate(171.19 109.32)">BELICE</text><text class="cls-14" transform="translate(154.44 115.31)">GU<tspan class="cls-26" x="4.14" y="0">A</tspan><tspan x="5.75" y="0">TEMALA</tspan></text><path class="cls-27" d="M87.74,267.63l1.55,1.54a9.12,9.12,0,0,1,1.18-.07,7.42,7.42,0,0,1,7.25,7.28,6.29,6.29,0,0,1-.07,1.15l3.42,3.42.05-.1a11.64,11.64,0,0,0-16-14.78,6.11,6.11,0,0,1,2.6,1.56"/><path class="cls-27" d="M93.87,287.55a3.6,3.6,0,0,1-1.06-2.91,4.15,4.15,0,0,1,.34-1.31,7.32,7.32,0,0,1-3,.56,7.39,7.39,0,0,1-5.57-12l-3-3a11.64,11.64,0,0,0,8.81,19.31,12,12,0,0,0,3.52-.56Z"/><path class="cls-28" d="M100.1,292.75h0L94.39,287a3.12,3.12,0,0,1,.53-4.73l5.18,5.14a3.77,3.77,0,0,1,0,5.31"/><path class="cls-28" d="M81,267.22h0a5.14,5.14,0,0,1,6.23.93l13.47,13.46a3.4,3.4,0,0,1-5.24.07Z"/><path class="cls-28" d="M77.25,278H61.45c.57,2.94,3,4.83,6.52,4.83a7.21,7.21,0,0,0,5.47-2.19l2.53,2.9c-1.81,2.15-4.64,3.28-8.11,3.28-6.75,0-11.12-4.33-11.12-10.33a10,10,0,0,1,10.4-10.29c5.89,0,10.19,4.11,10.19,10.4,0,.38,0,.95-.08,1.4m-15.84-3.13H72.84a5.49,5.49,0,0,0-5.7-4.9,5.56,5.56,0,0,0-5.73,4.9"/><path class="cls-28" d="M123.38,266.46V286.6h-4.49V284a8.26,8.26,0,0,1-6.49,2.82c-5.16,0-8.67-2.82-8.67-8.9v-11.5h4.71v10.86c0,3.66,1.74,5.4,4.72,5.4,3.28,0,5.5-2,5.5-6.08V266.46Z"/><path class="cls-28" d="M143.44,274.8v11.8H139v-2.45c-1.14,1.73-3.32,2.71-6.34,2.71-4.6,0-7.51-2.52-7.51-6,0-3.36,2.27-6,8.38-6h5.2v-.3c0-2.75-1.66-4.37-5-4.37a9.9,9.9,0,0,0-6.11,2l-1.85-3.44a14.22,14.22,0,0,1,8.52-2.48c5.81,0,9.17,2.75,9.17,8.56m-4.72,5.5V278h-4.86c-3.21,0-4.08,1.21-4.08,2.68,0,1.7,1.44,2.79,3.85,2.79a5.12,5.12,0,0,0,5.09-3.13"/><rect class="cls-28" x="145.79" y="258.62" width="4.71" height="27.98"/><path class="cls-28" d="M152.85,261.41a2.87,2.87,0,0,1,3-2.82,2.81,2.81,0,0,1,3,2.71,3,3,0,0,1-6,.11"/><rect class="cls-28" x="153.5" y="266.46" width="4.71" height="20.14"/><path class="cls-28" d="M175.35,285.51a7.46,7.46,0,0,1-4.53,1.35c-4.41,0-6.94-2.33-6.94-6.78v-9.7h-3.32v-3.94h3.32v-7.85h4.71v7.85H174v3.94h-5.4V280c0,2,1,3,2.8,3a4.22,4.22,0,0,0,2.64-.83Z"/><path class="cls-28" d="M198.37,266.46l-9.43,21.76c-1.85,4.57-4.41,6-7.77,6a8.32,8.32,0,0,1-5.39-1.85l1.88-3.47a5.11,5.11,0,0,0,3.47,1.4c1.66,0,2.64-.79,3.55-2.79l.34-.79-8.79-20.22h4.9l6.34,14.9,6.37-14.9Z"/><circle class="cls-29" cx="133.11" cy="97.8" r="2.4"/><circle class="cls-29" cx="200.95" cy="140.29" r="2.4"/><circle class="cls-29" cx="191.25" cy="136.09" r="2.4"/><circle class="cls-29" cx="231.7" cy="156.09" r="2.4"/><circle class="cls-29" cx="209.74" cy="181.73" r="2.4"/><circle class="cls-29" cx="221.32" cy="206.17" r="2.4"/><circle class="cls-29" cx="305.23" cy="208.93" r="2.4"/><circle class="cls-29" cx="297.77" cy="301.11" r="2.4"/><rect class="cls-29" x="57" y="242.09" width="70.64" height="10.82" rx="2.27"/><text class="cls-30" transform="translate(63.38 249.56)"><tspan class="cls-31">P</tspan><tspan class="cls-32" x="3.25" y="0">ases </tspan><tspan class="cls-33" x="17.5" y="0">c</tspan><tspan x="20.34" y="0">on clie</tspan><tspan class="cls-34" x="37.89" y="0">n</tspan><tspan class="cls-35" x="41.42" y="0">t</tspan><tspan x="43.51" y="0">es </tspan></text><text class="cls-36" transform="translate(106.47 293.48)">Soluciones de Inclusin Financiera</text><path class="cls-6" d="M240.63,98.16a2.94,2.94,0,0,0-1-.14,3.93,3.93,0,0,1-1.59-.27,3.26,3.26,0,0,0-1.33-.49c-.4,0-.95,0-1.52,0a1.87,1.87,0,0,0-1.33.45c-.16.23-.54.54.12.64a2.54,2.54,0,0,0,.88,0,2.88,2.88,0,0,1,1.42,0c.45.24.91.41.86.67s-.6-.24-.5.83.31.66.4,1,.48.47.86.83,1.06.31.71.88-.33.26-.81.26-.71-.21-.81.08,0,.39-.57.3a4.12,4.12,0,0,0-1.54-.24,2.33,2.33,0,0,1-1.28,0,13.76,13.76,0,0,1-1.64-.19,3,3,0,0,0-2-.26c-.5.26-.22.22-.46.77s.24.54.69.66,1.07-.12,1.38.19.45.64.78.35,0-.57.89-.54.06,0,1.39.09a8.62,8.62,0,0,0,2.13,0c.81-.12.55-.47,1.74-.05s1.09,0,1.82.26,1.21,1.76,1.9-.35,1.92-2.66.47-4.13S240.63,98.16,240.63,98.16Z"/><path class="cls-5" d="M240.63,98.16a4.86,4.86,0,0,0,.19.59c.07.14,0,.33-.09.59s-.26.34-.1.55,1-.21.43.64-1,.14-.5.88.67.07.25.73-.46.36-.46.36h-.76a3.1,3.1,0,0,0,.35.52c.24.29.29.55.71.52s.29.29.29.29-.26.33-.24.4-.19.31.36,1,.33.69.33.69a5,5,0,0,1,.4.4c.05.07.05.74.72-.09a5.29,5.29,0,0,0,.61-1.07c.07-.31.62-.57.12-1.38,0,0,.38-.26.62,0a.36.36,0,0,0,.61-.24.4.4,0,0,1,.62-.21c.14.14.69.09.69.09s-.24.5,0,.57a4.24,4.24,0,0,0,1.23-.19c.1,0,.69-.07.81-.35s.24-.67.5-.62.61-.07.92.07a2.17,2.17,0,0,0,1.26,0,3.37,3.37,0,0,1,1.12,0,10,10,0,0,0,1.11.17c.09,0,.19.47.4.55s-.26.42,0,.49.86.22.83,0a1,1,0,0,0-.23-.47s.12-.5.23-.46.64.36.38-.52c0,0,1-.45-.28-1s-.9-.81-.9-.81-.48-.31-.67-.19-.92,0-1.09,0a10.67,10.67,0,0,1-1.26-.47c-.23-.1-.57.31-1.11-.52s-.81-.6-.81-.6.67-1-.64-.92a1.8,1.8,0,0,1-.83-.12,3.36,3.36,0,0,0-.83-.24,9.07,9.07,0,0,0-.92-.21c-.24,0-1.36-.59-1.45-.45s-1.21.5-1.38.33-.8-.17-.8-.17.3.41,0,.57S240.44,97.56,240.63,98.16Z"/><text class="cls-37" transform="translate(248.69 93.53)">REPBLICA <tspan x="-1.56" y="7.78">DOMINICANA</tspan></text><circle class="cls-29" cx="178.17" cy="118.12" r="2.4"/><circle class="cls-29" cx="243.77" cy="102.7" r="2.4"/><text class="cls-13" transform="translate(180.71 115.64)">HONDURAS</text></g></g></g></g></svg>