<svg xmlns="http://www.w3.org/2000/svg" viewBox="0 0 124.65 31.33"><defs><style>.cls-1{fill:#f36d21;}.cls-2{fill:#712a81;}</style></defs><title>queality_logo</title><g id="Layer_2" data-name="Layer 2"><g id="Home"><g id="Header"><g id="logo"><path class="cls-1" d="M27.28,8l1.37,1.36a6,6,0,0,1,1-.06,6.52,6.52,0,0,1,6.38,6.4,5.65,5.65,0,0,1-.06,1l3,3a.36.36,0,0,0,0-.09A10.25,10.25,0,0,0,25,6.58,5.35,5.35,0,0,1,27.28,8"/><path class="cls-1" d="M32.68,25.49a3.19,3.19,0,0,1-.93-2.56,3.49,3.49,0,0,1,.3-1.15A6.51,6.51,0,0,1,24.5,11.67L21.84,9A10.24,10.24,0,0,0,32.7,25.51Z"/><path class="cls-2" d="M38.16,30.06h0l-5-5a2.75,2.75,0,0,1,.47-4.17l4.55,4.53a3.29,3.29,0,0,1,0,4.66"/><path class="cls-2" d="M21.34,7.6h0a4.54,4.54,0,0,1,5.49.81L38.69,20.26a3,3,0,0,1-4.62.06Z"/><path class="cls-2" d="M18.06,17.12H4.15c.5,2.59,2.65,4.25,5.74,4.25a6.33,6.33,0,0,0,4.81-1.93L16.93,22a9,9,0,0,1-7.14,2.89C3.85,24.89,0,21.07,0,15.79A8.82,8.82,0,0,1,9.16,6.73c5.18,0,9,3.62,9,9.16,0,.33,0,.83-.06,1.23M4.12,14.37H14.17a4.82,4.82,0,0,0-5-4.32,4.89,4.89,0,0,0-5,4.32"/><path class="cls-2" d="M58.65,6.93V24.66H54.7V22.4A7.24,7.24,0,0,1,49,24.89c-4.55,0-7.63-2.49-7.63-7.84V6.93h4.15v9.56c0,3.22,1.52,4.75,4.15,4.75,2.88,0,4.84-1.8,4.84-5.35v-9Z"/><path class="cls-2" d="M76.31,14.27V24.66H72.39V22.5c-1,1.53-2.92,2.39-5.58,2.39-4.05,0-6.6-2.23-6.6-5.31s2-5.28,7.37-5.28h4.58V14c0-2.42-1.46-3.85-4.42-3.85a8.83,8.83,0,0,0-5.38,1.76l-1.62-3a12.45,12.45,0,0,1,7.5-2.19c5.11,0,8.07,2.42,8.07,7.54m-4.15,4.84V17.05H67.87c-2.82,0-3.58,1.07-3.58,2.36,0,1.5,1.26,2.46,3.38,2.46a4.53,4.53,0,0,0,4.49-2.76"/><rect class="cls-2" x="78.37" y="0.03" width="4.15" height="24.63"/><path class="cls-2" d="M84.59,2.49A2.53,2.53,0,0,1,87.25,0,2.46,2.46,0,0,1,89.9,2.39a2.66,2.66,0,0,1-5.31.1"/><rect class="cls-2" x="85.16" y="6.93" width="4.15" height="17.72"/><path class="cls-2" d="M104.39,23.69a6.52,6.52,0,0,1-4,1.2c-3.88,0-6.1-2.06-6.1-6V10.38H91.38V6.92H94.3V0h4.15V6.92h4.74v3.46H98.45v8.43c0,1.73.86,2.66,2.45,2.66a3.72,3.72,0,0,0,2.33-.73Z"/><path class="cls-2" d="M124.65,6.93l-8.3,19.15c-1.62,4-3.88,5.25-6.83,5.25a7.34,7.34,0,0,1-4.75-1.63l1.66-3.05a4.51,4.51,0,0,0,3,1.23c1.46,0,2.33-.7,3.12-2.46l.3-.7L105.17,6.93h4.31L115.06,20l5.61-13.11Z"/></g></g></g></g></svg>